<?xml version="1.0" encoding="UTF-8"?>
<svg version="1.1" viewBox="0 0 1716 1708" width="429" height="427" xmlns="http://www.w3.org/2000/svg">
<path transform="translate(0)" d="m0 0h1716v1708h-1716z" fill="#056843"/>
<path transform="translate(102,188)" d="m0 0h376l6 1v1325l-4 2h-379l-1-1v-1325z" fill="#FEFBE1"/>
<path transform="translate(1230,188)" d="m0 0h369l13 1v1326l-2 1h-381l-1-1v-1324z" fill="#FEFBE1"/>
<path transform="translate(828,872)" d="m0 0h56l20 2 24 4 24 6 27 9 23 10 25 13 22 14 17 13 11 9 13 12 18 18 9 11 13 17 10 15 12 21 12 25 10 27 7 27 4 22 2 14 1 14v37l-2 22-5 28-6 23-8 23-11 25-9 17-8 13-8 12-12 16-12 14-11 12-12 12-11 9-16 13-21 14-21 12-27 13-24 9-30 8-20 4-28 4-11 1h-37l-19-2-29-5-23-5-23-7-25-10-21-10-19-11-12-8-11-8-13-10-10-9-12-11-10-10-7-8-11-13-10-14-10-15-12-21-11-23-6-15-8-26-5-23-3-19-2-18-1-16v-11l2-24 3-25 6-27 9-29 11-26 14-26 11-17 12-16 11-13 11-12 16-16 11-9 12-10 17-12 20-12 23-12 24-10 24-8 15-4 12-3 27-4z" fill="#FEFBE1"/>
<path transform="translate(824,188)" d="m0 0h64l30 4 27 6 23 7 25 10 25 12 17 10 18 12 13 10 11 9 13 12 18 18 9 11 13 17 10 15 12 21 12 25 10 27 7 27 4 22 2 14 1 14v37l-2 22-5 28-6 23-8 23-11 25-9 17-8 13-8 12-12 16-12 14-11 12-12 12-11 9-16 13-21 14-21 12-27 13-24 9-25 7-23 5-32 4h-55l-36-5-30-7-27-9-26-11-23-12-17-11-14-10-13-10-10-9-12-11-10-10-7-8-11-13-10-14-10-15-12-21-11-23-6-15-8-26-5-23-3-19-2-18-1-16v-11l2-24 3-25 6-27 9-29 11-26 14-26 11-17 12-16 11-13 11-12 16-16 11-9 12-10 17-12 13-8 18-10 23-11 21-8 26-8 17-4 25-4z" fill="#FEFBE1"/>
</svg>
