<?xml version="1.0" encoding="UTF-8"?>
<svg version="1.1" viewBox="0 0 1716 1708" width="429" height="427" xmlns="http://www.w3.org/2000/svg">
<path transform="translate(0)" d="m0 0h1716v1708h-1716z" fill="#FEB408"/>
<path transform="translate(0)" d="m0 0h1716v820l-2-1-4-35-5-42-3-30-4-28-8-38-8-32-9-29-12-33-12-29-13-29-8-17-10-19-15-28-14-26-7-11-8-12-8-11-3-1 1 108v316l-1 2h-6l-2-4-1-16-7-41-7-33-7-29-7-25-14-41-10-27-8-18-12-25-13-24-17-28-22-33-13-18-14-18-9-11-10-11-7-8-9-9-7-4h-1v403l1 32-2 5-5 1-3-5-2-18-7-37-12-45-12-35-10-25-8-17-16-27-12-19-11-16-11-14-7-9-10-11-8-10-9-10-5-6-8-7-13-13-11-9-10-8-12-10-8-6-10-7-15-10-24-14-16-8-23-11-37-15-20-7-30-8-19-4-19-3-12-2-18-2-1-5 1-1h441l-3-7-8-8-8-7-14-12-7-7-17-13-9-7-13-9-18-11-24-15-29-16-22-11-28-13-32-15-26-10-30-10-14-4-27-6-22-4-10-2-22-3-25-4-11-1-2-3 2-2 5-1 48 1h368v-2l-9-7-15-10-17-11-11-6-27-14-44-22-27-13-28-12-27-10-31-10-29-8-40-10-25-5-23-4-18-3-17-2-13-2-21-2-18-2-28-1h-41l-35 1-24 3-20 2-11 2-25 3-24 4-38 8-35 9-25 7-36 12-18 7-13 5-23 10-14 7-23 11-36 18-17 9-11 6-18 11-25 17h-2l-1 3 3 1h383l37-1 2 1-2 4-7 2-31 4-25 4-27 5-30 7-36 11-12 4-12 5-17 7-14 7-21 10-20 9-28 14-24 14-23 15-14 8-17 12-14 11-11 9-12 11-10 9-4 2-2 4h-2l-2 4-4 3-2 5h442l2 4-7 3-31 4-22 4-25 6-31 10-31 12-24 11-23 11-23 13-24 16-17 13-16 13-11 9-15 14-11 11-7 8-11 13-13 15-12 16-7 10-10 15-9 14-6 11-10 17-8 15-12 32-12 36-8 28-6 25-4 25-2 15-2 4-5 1-2-3v-438l-6 3-17 17-9 11-9 10-12 16-8 11-30 45-14 23-12 21-16 32-10 24-8 21-7 20-6 18-7 23-12 49-8 39-4 36-2 4h-5l-2-3v-354l1-68-4 2-17 26-11 19-7 14-12 22-17 33-8 17-11 26-5 10-6 17-6 15-9 26-7 24-6 24-8 36-4 26-7 61-4 35-1 11-2 1z" fill="#6876F9"/>
<path transform="translate(1715,888)" d="m0 0h1v820h-1716v-819l2 1 2 26 3 23 7 62 6 36 10 43 10 35 8 23 12 31 20 45 8 16 14 27 12 22 12 23 3 5v2h2l6 10v2h2l10 16 3 1-1-65v-283l1-65 1-13 4-1 2 2 2 12 3 24 6 33 10 44 8 28 12 36 8 23 8 20 10 23 20 38 8 13 15 24v2h2l8 13 6 9v2h2l8 12 10 14v2l3 1 8 11 5 6v2l3 1 7 8 11 12 10 9 4 1-1-64v-300l1-67 1-10 4-2 3 5 4 29 6 29 6 24 9 29 11 31 10 25 12 22 7 11 5 9 7 10 5 9 11 15 10 13 13 16 12 14 9 11 21 21 22 18 26 20 13 9 18 11 22 12 29 14 34 14 24 8 26 7 21 5 21 4 24 3 8 2 1 4-4 2-26-1h-410l-3 1 2 5 10 10 8 7 10 9 7 6v2l4 2 12 9 8 7 24 16 9 5 19 12 13 8 19 11 19 9 43 20 14 7 18 8 21 8 25 8 32 8 27 5 21 4 30 5 13 2 12 1 3 2-1 3-3 1h-19l-17-1h-343l-42 1-1 2h2v2l5 2 9 7 7 4 19 12 18 10 58 29 17 8 14 7 26 11 12 5 20 7 8 3 24 8 29 8 32 8 39 8 40 6 48 6 30 3 41 1 30-1 36-3 61-8 44-8 34-8 37-10 26-8 38-14 26-11 17-8 16-8 19-9 19-10 20-10 22-12 22-14 19-13v-2h-24l-40-1h-334l-23 1-2-4 5-2 27-4 26-4 34-6 23-5 28-8 24-8 20-8 24-11 25-12 23-11 24-12 27-16 13-8 24-15 18-13 22-18 12-11 7-6 5-6 8-7 2-2 1-4-12 1-46-1h-384l-1-5 8-2 25-3 32-6 23-6 19-6 20-7 29-12 24-11 19-10 21-12 15-10 19-14 16-13 11-9 13-11 17-17 7-8 13-16 11-13 12-16 7-10 8-12 7-11 9-15 8-14 8-15 10-25 7-19 11-34 9-34 5-26 5-29 2-3 4 1 1 371 1 70 4-2 10-9 13-14 1-2h2l2-4 11-13 12-16 12-17 27-41 9-15 10-17 12-23 12-25 13-34 16-48 9-32 11-47 6-35 3-24 3-7 4 1 1 305v121l6-5 7-11 13-21 10-18 6-11 14-27 10-19 12-25 11-26 12-30 7-20 7-21 9-35 7-32 4-22 3-19 7-63 4-31 1-13z" fill="#6876F9"/>
<path transform="translate(1360,1347)" d="m0 0h84l105 1h8l-2 5-7 8-10 13-11 13-9 10-9 11-9 10-7 8-8 8-2 3h-2l-2 4-36 36h-2l-1 3-8 7-14 12-17 14-14 11-17 13-7 5h-3l-1-59v-134z" fill="#FEB408"/>
<path transform="translate(198,1347)" d="m0 0h156l2 2v194l-6-3-39-30-8-7-6-4v-2l-4-2-12-11-11-10-8-7-18-18-7-8-6-6v-2h-2l-7-8-11-12-12-14-4-5-5-5-14-17-9-11-8-10v-3z" fill="#FEB408"/>
<path transform="translate(1360,165)" d="m0 0 5 2 5 4 16 12 14 11 9 8 9 7 12 11 11 10 10 8 20 20 7 8 14 15 7 8 1 3 3 1 7 8 10 11 8 10 8 9 11 14 9 11v3h-195l-1-2-1-19v-172z" fill="#FEB408"/>
<path transform="translate(354,165)" d="m0 0h2v186l-1 8-2 1-193-1 1-4 13-16 9-12 12-13 9-11 14-15 7-8 11-12 4-5h2l2-4 25-25 11-9 8-8 8-7 16-13 28-22z" fill="#FEB408"/>
</svg>
