<?xml version="1.0" encoding="UTF-8"?>
<svg version="1.1" viewBox="0 0 1716 1708" width="429" height="427" xmlns="http://www.w3.org/2000/svg">
<path transform="translate(0)" d="m0 0h1716v1708h-1716z" fill="#066742"/>
<path transform="translate(86,853)" d="m0 0h131l1 6v208h-195l-23-1v-212z" fill="#16261C"/>
<path transform="translate(33,1280)" d="m0 0h184l1 3v210l-218 1v-213z" fill="#16261C"/>
<path transform="translate(0,427)" d="m0 0h217l1 212-1 1h-217z" fill="#16261C"/>
<path transform="translate(0)" d="m0 0h217l1 212-76 1h-111l-31-1z" fill="#16261C"/>
<path transform="translate(824,1493)" d="m0 0h35l1 1v214h-213v-214z" fill="#15261C"/>
<path transform="translate(1258,1493)" d="m0 0h29l1 1v214h-212l-1-178v-36z" fill="#16261C"/>
<path transform="translate(399,1493)" d="m0 0h32l1 1v214h-212l-1-179v-35z" fill="#16261C"/>
<path transform="translate(1503,1494)" d="m0 0h213v214h-212l-1-179z" fill="#16261C"/>
<path transform="translate(1288,853)" d="m0 0h213l1 8v206h-162l-51-1-1-175z" fill="#16261C"/>
<path transform="translate(432,853)" d="m0 0h213l1 7v207h-163l-50-1-1-175z" fill="#16261C"/>
<path transform="translate(860,853)" d="m0 0h213l1 7v207h-163l-50-1-1-175z" fill="#16261C"/>
<path transform="translate(1076,213)" d="m0 0h211l1 1v213h-113l-99-1v-78l-1-101v-33z" fill="#16261C"/>
<path transform="translate(220,213)" d="m0 0h211l1 1v213h-114l-98-1v-81l-1-98v-33z" fill="#16261C"/>
<path transform="translate(648,213)" d="m0 0h211l1 1v213h-113l-99-1v-81l-1-98v-33z" fill="#16261C"/>
<path transform="translate(432,1280)" d="m0 0h213l1 3v210h-161l-52-1-1-181z" fill="#16261C"/>
<path transform="translate(1288,1280)" d="m0 0h213l1 3v210h-161l-52-1-1-181z" fill="#16261C"/>
<path transform="translate(860,1280)" d="m0 0h213l1 3v210h-160l-53-1-1-181z" fill="#16261C"/>
<path transform="translate(1504,213)" d="m0 0h116l96 1v213h-113l-99-1v-81l-1-98v-33z" fill="#16261C"/>
<path transform="translate(1075,640)" d="m0 0h213v213h-140l-71-1-1-2v-130l-1-51z" fill="#16261C"/>
<path transform="translate(647,640)" d="m0 0h213v213h-140l-71-1-1-2v-130l-1-51z" fill="#16261C"/>
<path transform="translate(219,640)" d="m0 0h213v213h-140l-71-1-1-2v-131l-1-50z" fill="#16261C"/>
<path transform="translate(1503,640)" d="m0 0h213v213h-133l-78-1-1-2v-129l-1-52z" fill="#16261C"/>
<path transform="translate(1288)" d="m0 0h213l1 212-67 1h-63l-83-1-1-173z" fill="#16261C"/>
<path transform="translate(860)" d="m0 0h213l1 212-67 1h-63l-83-1-1-173z" fill="#16261C"/>
<path transform="translate(432)" d="m0 0h213l1 212-67 1h-63l-83-1-1-173z" fill="#16261C"/>
<path transform="translate(1288,427)" d="m0 0h213l1 212-1 1h-154l-58-1-1-164z" fill="#16261C"/>
<path transform="translate(860,427)" d="m0 0h213l1 212-1 1h-154l-58-1-1-164z" fill="#16261C"/>
<path transform="translate(432,427)" d="m0 0h213l1 212-1 1h-154l-58-1-1-164z" fill="#16261C"/>
<path transform="translate(419,1067)" d="m0 0h11l2 1v212h-156l-56-1-1-177v-34z" fill="#16261C"/>
<path transform="translate(847,1067)" d="m0 0h11l2 1v212h-156l-55-1-1-1-1-176v-34z" fill="#16261C"/>
<path transform="translate(1275,1067)" d="m0 0h11l2 1v212h-156l-55-1-1-1-1-178v-32z" fill="#16261C"/>
<path transform="translate(1503,1068)" d="m0 0h213v212h-152l-59-1-1-1-1-179z" fill="#16261C"/>
</svg>
