<?xml version="1.0" encoding="UTF-8"?>
<svg version="1.1" viewBox="0 0 1716 1708" width="429" height="427" xmlns="http://www.w3.org/2000/svg">
<path transform="translate(0)" d="m0 0h1716v1708h-1716z" fill="#C0CFD6"/>
<path transform="translate(132,138)" d="m0 0h719l1 88v628l-106 1h-426l-187-1-1-156z" fill="#C0CFD6"/>
<path transform="translate(863,138)" d="m0 0h719v716l-133 1h-367l-219-1-1-471v-244z" fill="#C0CFD6"/>
<path transform="translate(864,864)" d="m0 0h719v717h-719l-1-473v-243z" fill="#C0CFD6"/>
<path transform="translate(133,864)" d="m0 0h718l1 1 1 687-1 29h-718l-1-1z" fill="#C0CFD6"/>
<path transform="translate(132,138)" d="m0 0h719l1 88v628l-106 1h-426l-187-1-1-156zm11 84-1 3 1 619h623l1-12-1-562-1-47-1-1z" fill="#141414"/>
<path transform="translate(864,864)" d="m0 0h719v717h-719l-1-473v-243zm87 11-2 1-1 6v86l1 527 3 2h620l1-43v-92l-1-487z" fill="#141414"/>
<path transform="translate(863,138)" d="m0 0h719v716l-133 1h-367l-219-1-1-471v-244zm85 84v621l1 1h623v-600l-1-21-1-1z" fill="#141414"/>
<path transform="translate(133,864)" d="m0 0h718l1 1 1 687-1 29h-718l-1-1zm12 11-2 2v184l1 436h621l2-1v-586l-1-35z" fill="#141414"/>
<path transform="translate(948,222)" d="m0 0h622l1 1 1 21v600h-623l-1-1zm11 10v529l1 2h530l2-1v-529l-1-1z" fill="#C0CFD6"/>
<path transform="translate(145,875)" d="m0 0h621l1 35v586l-2 1h-621l-1-479v-141zm78 81v530l3 1h530v-531z" fill="#C0CFD6"/>
<path transform="translate(951,875)" d="m0 0h621l1 487v92l-1 43h-620l-3-2-1-558v-55l1-6zm9 81v531h533l1-18-1-513z" fill="#C0CFD6"/>
<path transform="translate(143,222)" d="m0 0h621l1 1 1 47 1 564-1 10h-623l-1-620zm79 10-1 1v98l1 431 1 1h532l1-7v-60l-1-464z" fill="#C0CFD6"/>
<path transform="translate(960,956)" d="m0 0h533l1 518-1 13h-533zm512 10-437 1v412l1 30h447v-442l-2-1z" fill="#141414"/>
<path transform="translate(223,956)" d="m0 0h533v531h-530l-3-1zm57 10-47 1-1 6 1 436h447l1-1v-437l-1-4z" fill="#141414"/>
<path transform="translate(222,232)" d="m0 0h533l1 464v60l-1 7h-532l-1-1-1-431v-98zm155 77-144 1-1 1v441h448v-441l-3-2z" fill="#141414"/>
<path transform="translate(959,232)" d="m0 0h532l1 1v529l-2 1h-530l-1-2zm200 77-124 1-1 1v439l1 2h448l-1-441-1-1-164-1z" fill="#141414"/>
<path transform="translate(377,309)" d="m0 0h301l2 2v441h-448v-441l1-1zm-66 11v91l1 264h357v-355z" fill="#C0CFD6"/>
<path transform="translate(1159,309)" d="m0 0h165l157 1 1 1 1 441h-448l-1-2v-439l1-1zm-114 11v355h358v-355z" fill="#C0CFD6"/>
<path transform="translate(280,966)" d="m0 0 400 1 1 4v437l-1 1h-447l-1-436 1-6zm32 78v354l1 1h357v-355z" fill="#C0CFD6"/>
<path transform="translate(1472,966)" d="m0 0h9l2 1v442h-447l-1-30v-412zm-426 78v355h357l1-1v-354z" fill="#C0CFD6"/>
<path transform="translate(1045,320)" d="m0 0h358v355h-358zm191 77-108 1-1 1v54l1 211 4 1h258l3-2-1-265-116-1z" fill="#141414"/>
<path transform="translate(1046,1044)" d="m0 0h358v354l-1 1h-357zm120 10-38 1v266l224 1h38l3-1v-266l-1-1z" fill="#141414"/>
<path transform="translate(312,1044)" d="m0 0h358v355h-357l-1-1zm11 10-1 1v122l1 144h264l1-1v-265l-2-1z" fill="#141414"/>
<path transform="translate(311,320)" d="m0 0h358v355h-357l-1-264zm11 77v267l1 1h261l3-1v-266l-4-1z" fill="#141414"/>
<path transform="translate(404,408)" d="m0 0h172v179l-3 1-168-1-1-1z" fill="#141414"/>
<path transform="translate(1138,408)" d="m0 0h172v178l-1 1-167 1-4-1z" fill="#141414"/>
<path transform="translate(1139,1132)" d="m0 0h172v179h-172z" fill="#141414"/>
<path transform="translate(405,1132)" d="m0 0h171l1 3v176h-171l-1-1z" fill="#141414"/>
<path transform="translate(1213,482)" d="m0 0h86l1 4v90l-1 1h-85l-1-1z" fill="#C0CFD6"/>
<path transform="translate(1215,1142)" d="m0 0h85v94l-1 1h-84l-1-1v-93z" fill="#C0CFD6"/>
<path transform="translate(416,1142)" d="m0 0h84l2 1v93l-1 1h-85z" fill="#C0CFD6"/>
<path transform="translate(415,482)" d="m0 0h85l1 1v93l-1 1h-84l-1-1z" fill="#C0CFD6"/>
</svg>
