<?xml version="1.0" encoding="UTF-8"?>
<svg version="1.1" viewBox="0 0 1716 1708" width="429" height="427" xmlns="http://www.w3.org/2000/svg">
<path transform="translate(0)" d="m0 0h1716v1708h-1716z" fill="#FAA1E1"/>
<path transform="translate(259,872)" d="m0 0h442l18 4 15 5 18 8 11 6 14 10 19 19 9 11v2h2l13 19 8 14 7 15 3 11 1 21v449l-3 1h-211l-1-1v-216l-1-2-8 7-212 212-3 2-4-1-135-135-8-7-10-9 1-4 10-8 206-206 4-7h-36l-187-1-1-1v-165l1-52z" fill="#6878FD"/>
<path transform="translate(398,242)" d="m0 0 4 2 3 3v2h2l7 8 6 5 5 5 4 5 160 160 7 6 5 6 8 7 9 9 6 3v-163l1-54 1-1 23-1h189l1 1 1 459-2 13-4 12-6 14-12 20-10 13-12 14-17 17-16 11-23 11-21 7-15 3h-461l-1-1v-152l1-64 1-1 24-1h177l21-1-4-6-6-5-5-6-8-7-1-3-4-2v-2l-4-2-75-75v-2h-2v-2l-4-2-36-36v-2h-2v-2h-2v-2h-2l-4-4v-2h-2v-2l-4-2-26-26-7-8-11-11-3-2v-2l-4-2-5-5 1-4 14-11z" fill="#6878FD"/>
<path transform="translate(1312,242)" d="m0 0 5 3 4 5 8 7 16 16 7 8 50 50 6 5 16 16v2l4 2v2l4 2 5 5v2h2l6 7 8 7 9 8 7 4-1 4-13 12-155 155-6 7h-2l-2 4h-2l-2 4-37 37-1 4h223v218l-1 1h-458l-19-3-13-4-16-7-19-10-12-9-10-9-9-11-11-13-11-16-10-18-8-19-2-8v-72l1-394 1-1 23-1h189l1 1 1 219 5-3z" fill="#6878FD"/>
<path transform="translate(1014,872)" d="m0 0h457v218l-2 1-203 1-18 1 3 5 9 9 7 8 186 186 16 14-2 4-8 6-17 16-14 14-7 8-3 3h-2v2h-2v2l-8 7-11 11-5 6-7 6-5 6-7 6-1 2h-2v2h-2v2h-2v2h-2v2h-2v2h-2v2h-2v2h-2v2h-2l-2 4-12 12-8 7-4 5-8 7-4 4-5-2-91-91-7-6v-2l-4-2v-2l-4-2v-2l-4-2v-2l-4-2v-2l-4-2v-2l-3-1-5-6-7-6-6-7-6-5-7-8-35-35-3-2v-2l-4-2-24-24-3-1v29l-1 188-4 1h-210l-1-400v-43l1-27 7-21 9-17 14-20 12-14 9-10 8-8 15-11 18-10 15-6 21-6z" fill="#6878FD"/>
</svg>
