<?xml version="1.0" encoding="UTF-8"?>
<svg version="1.1" viewBox="0 0 1716 1708" width="429" height="427" xmlns="http://www.w3.org/2000/svg">
<path transform="translate(0)" d="m0 0h1716v1708h-1716z" fill="#FEF9E2"/>
<path transform="translate(0)" d="m0 0h1680l-2 4-34 34-8 7-172 172-8 7-12 10-17 11-21 10-16 5-20 3-5 1h-7l-19-5-19-9-14-10-14-12-13-12-9-9-8-7-28-28-8-7-49-49-4 1-18 18-8 7 1 3 10 8 12 11 90 90 7 8 10 12 8 13 6 14 5 25v17l-5 20-8 20-11 20-9 12-9 10-112 112-8 7-142 142-8 7-53 53-13 10-15 9-13 6-17 5-16 2-8 2h-7l-19-5-19-9-14-10-14-12-13-12-9-9-8-7-29-29-8-7-48-48-4 1-17 17-8 7v4l10 8 12 11 90 90 7 8 10 12 8 13 6 14 5 25v17l-5 20-8 20-9 16-8 10-9 10-66 66-8 7-113 113-8 7-123 123-8 7-10 8-16 10-15 7-17 5-16 2-8 2h-7l-19-5-19-9-14-10-14-12-13-12-9-9-8-7-27-27-8-7-50-50-4 1-20 20-6 5 1 3 10 8 12 11 90 90 7 8 10 12 8 13 6 14 5 24v18l-4 17-8 21-9 17-8 10-11 13-44 44h-2v2h-2v2l-8 7-93 93-8 7-65 65h-2z" fill="#FEF9E2"/>
<path transform="translate(1715,535)" d="m0 0h1v1173h-1179l2-4 7-8 8-7 86-86h2l2-4h2v-2l8-7 126-126 16-12 14-7 15-5 18-3h23l18 4 16 6 14 8 16 13 16 15 101 101 5-1 10-9 8-7 8-8-2-4-41-41-6-5-7-8-69-69-10-13-8-15-5-16-2-9-1-18 2-18 8-24 9-17 9-11 14-15 23-23 8-7 202-202 8-7 86-86 14-10 16-8 15-5 17-3 14-1 21 3 16 5 16 8 14 10 12 11 8 7 104 104 5-1 11-10 8-7 7-7-2-4-38-38-8-7-11-12-66-66-10-13-8-15-5-16-2-9-1-17 1-14 6-21 7-16 7-12 11-13 8-8 7-8 14-14 8-7 93-93 8-7z" fill="#FEF9E2"/>
<path transform="translate(1218)" d="m0 0h462l-2 4-34 34-8 7-172 172-8 7-12 10-17 11-21 10-16 5-20 3-5 1h-7l-19-5-19-9-14-10-14-12-13-12-9-9-8-7-28-28-8-7-49-49-4 1-18 18-8 7 1 3 10 8 12 11 90 90 7 8 10 12 8 13 6 14 5 25v17l-5 20-8 20-11 20-9 12-9 10-112 112-8 7-142 142-8 7-53 53-13 10-15 9-13 6-17 5-16 2-8 2h-7l-19-5-19-9-14-10-14-12-13-12-9-9-8-7-29-29-8-7-48-48-4 1-17 17-8 7v4l10 8 12 11 90 90 7 8 10 12 8 13 6 14 5 25v17l-5 20-8 20-9 16-8 10-9 10-66 66-8 7-113 113-8 7-123 123-8 7-10 8-16 10-15 7-17 5-16 2-8 2h-7l-19-5-19-9-14-10-14-12-13-12-9-9-8-7-27-27-8-7-50-50-4 1-20 20-6 5 1 3 10 8 12 11 90 90 7 8 10 12 8 13 6 14 5 24v18l-4 17-8 21-9 17-8 10-11 13-44 44h-2v2h-2v2l-8 7-93 93-8 7-65 65h-2v-459l17-16 7-7h2v-2l8-7 77-77h2v-2h2v-2l8-7 137-137 8-7 14-9 8-4 15-5 18-3h23l18 4 16 6 14 8 14 11 7 7 8 7 104 104 5-1 12-11 8-7 6-6-2-4-39-39-8-7-7-8-69-69-10-13-8-15-5-16-2-9v-31l6-21 8-18 9-13 15-16 38-38h2v-2l8-7 162-162h2v-2h2v-2h2v-2l8-7 114-114 10-8 6-4 14-6 18-4 7-1h23l18 4 16 6 14 8 16 13 16 15 101 101 5-1 12-11 8-7 6-6-2-4-123-123-10-13-8-15-5-16-2-9v-32l8-26 7-13 9-10 186-186 8-7 57-57 7-8z" fill="#FEF9E2"/>
<path transform="translate(1714,992)" d="m0 0h2v716h-721l6-7 7-8 125-125 8-7 92-92 8-7 18-18 7-8 8-11 9-16 6-15 5-19 1-4v-17l-5-25-7-16-8-12-12-14-12-13-89-89-11-9-5-4 2-4 16-15 10-10 4 1 55 55 8 7 27 27 8 7 11 11 8 7 13 11 12 8 19 9 19 5h7l9-2 15-2 18-5 21-11 16-12 12-11 119-119h2l2-4h2v-2l8-7 88-88 8-7z" fill="#FEF9E2"/>
<path transform="translate(0)" d="m0 0h703l-3 5-150 150h-2v2l-8 7-105 105-9 14-6 13-6 19-2 18 1 18 5 20 8 17 10 13 9 10 118 118-2 4-13 13-11 9-2 2-5-1-109-109-8-7-15-12-16-9-17-6-15-3-13-1-23 3-14 4-12 5-12 7-10 9-15 14-5 6h-2l-2 4h-2l-2 4h-2l-2 4h-2l-2 4h-2l-2 4h-2l-2 4h-2l-2 4h-2l-2 4h-2l-2 4h-2l-1 3-8 7-150 150-8 7-31 31-8 7-2 1z" fill="#FEF9E2"/>
<path transform="translate(1680)" d="m0 0h36v21l-112 112h-2v2l-8 7-127 127-9 14-6 13-6 19-2 18 1 18 5 20 8 17 9 12 11 12 66 66 7 8 12 11 32 32-2 4-11 11-8 7-7 6-5-1-109-109-8-7-15-12-16-9-21-7-11-2h-23l-18 3-20 7-16 10-16 15-127 127h-2l-2 4h-2v2l-8 7-112 112h-2v2h-2v2l-8 7-61 61-9 11-7 10-8 15-6 16-4 15-1 18 2 18 4 14 5 12 7 12 12 14 69 69 7 8 13 12 32 32-2 4-11 11-8 7-7 6-5-1-109-109-8-7-15-12-16-9-17-6-15-3-13-1-17 2-18 4-15 6-13 7-9 7-10 9-65 65h-2l-2 4h-2l-2 4h-2l-2 4h-2l-2 4h-2l-2 4h-2l-2 4h-2l-2 4h-2l-2 4h-2l-2 4-8 8h-2l-2 4h-2l-2 4h-2l-2 4h-2l-2 4h-2l-2 4h-2l-2 4h-2l-1 3-8 7-101 101h-2l-2 4-8 7-68 68-9 11-9 13-8 17-6 19-1 5-1 18 2 18 4 15 8 17 10 13 9 10 67 67 7 8 10 9 34 34-2 4-12 12-11 9-3 3-5-1-109-109-8-7-15-12-16-9-17-6-15-3-13-1-17 2-18 4-15 6-11 6-9 7-20 18-177 177-8 7-42 42-1 2h-19v-39l8-7 65-65 8-7 93-93h2v-2h2v-2l8-7 41-41 9-11 7-10 9-17 8-22 3-14v-18l-5-24-7-16-8-12-12-14-12-13-89-89-11-9-5-4 2-4 13-12 13-13 4 1 55 55 8 7 27 27 8 7 11 11 8 7 13 11 12 8 19 9 19 5h7l8-2 16-2 17-5 17-8 11-7 12-9 7-7 8-7 123-123 8-7 113-113 8-7 66-66 10-13 9-16 8-20 5-20v-17l-5-25-7-16-8-12-12-14-12-13-89-89-11-9-5-4 2-4 17-16 9-9 4 1 53 53 8 7 29 29 8 7 11 11 8 7 13 11 12 8 19 9 19 5h7l8-2 16-2 17-5 17-8 12-8 9-7 10-9 52-52 8-7 142-142 8-7 112-112 12-17 10-18 8-20 5-20v-17l-5-25-7-16-8-12-12-14-12-13-89-89-11-9-5-4 2-4 16-15 10-10 4 1 54 54 8 7 28 28 8 7 11 11 8 7 13 11 16 10 15 7 19 5h7l9-2 16-2 21-7 21-11 17-12 12-11 10-9 171-171 8-7 27-27z" fill="#BAC9D2"/>
<path transform="translate(1162)" d="m0 0h56l-6 7-11 11-7 8-54 54h-2l-2 4-8 7-186 186-8 14-8 24-1 4v32l5 20 8 17 9 12 11 12 117 117-2 4-11 11-8 7-7 6-5-1-109-109-8-7-15-12-16-9-21-7-11-2h-23l-18 3-14 5-10 5-9 7-12 11-112 112h-2v2h-2v2h-2v2l-8 7-162 162h-2v2l-8 7-40 40-9 11-7 11-7 16-6 21v31l5 20 8 17 10 13 9 10 68 68 6 7 8 7 36 36-2 4-11 11-8 7-7 6-5-1-109-109-8-7-11-9-14-9-11-5-16-5-11-2h-23l-18 3-20 7-16 10-7 7-8 7-137 137h-2v2h-2v2l-8 7-77 77h-2v2l-8 7-10 10-8 6v-57l8-7 77-77 8-7 85-85h2v-2h2v-2l8-7 34-34 8-10 7-10 9-17 7-19 4-17v-17l-5-25-7-16-8-12-12-14-12-13-89-89-11-9-5-4 2-4 16-15 10-10 4 1 55 55 8 7 27 27 8 7 11 11 8 7 13 11 12 8 19 9 19 5h7l9-2 15-2 20-6 21-11 11-8 11-9 43-43 8-7 187-187 8-7 73-73 11-14 11-17 9-19 6-17 3-14v-18l-5-24-7-16-8-12-12-14-12-13-89-89-11-9-5-4 2-4 16-15 10-10 4 1 55 55 8 7 27 27 8 7 11 11 8 7 13 11 16 10 15 7 19 5h7l9-2 16-2 21-7 21-11 15-10 13-11 13-12 67-67 8-7z" fill="#BAC9D2"/>
<path transform="translate(1715,481)" d="m0 0h1v54l-109 109-8 7-93 93-8 7-13 13-7 8-10 11-9 14-7 15-6 19-1 5-1 18 2 18 4 14 5 12 7 12 12 14 70 70 7 8 10 9 34 34-2 4-12 12-11 9-3 3-5-1-109-109-8-7-15-12-16-9-17-6-15-3-13-1-17 2-18 4-19 8-11 7-11 9-89 89-8 7-198 198h-2l-2 4-8 7-25 25-7 8-9 12-9 19-6 19-2 18 1 18 5 20 8 17 10 13 9 10 68 68 4 5 8 7 38 38-2 4-13 13-11 9-2 2-5-1-109-109-8-7-15-12-16-9-17-6-15-3h-23l-18 3-20 7-12 7-10 8-10 9-125 125h-2v2l-8 7-95 95-6 7h-56l6-7 48-48 1-2h2v-2h2l2-4 6-6h2v-2h2v-2l4-4h2l2-4 20-20 8-7 71-71h2l1-3 8-7 74-74 12-16 10-18 8-20 5-20v-17l-5-25-7-16-8-12-12-14-12-13-89-89-11-9-5-4 2-4 16-15 10-10 4 1 55 55 8 7 27 27 8 7 11 11 8 7 11 9 11 8 17 9 11 4 13 3h7l8-2 17-2 21-7 21-11 16-12 12-11 39-39 8-7 139-139h2v-2l8-7 95-95 8-7 13-13 9-11 9-12 10-19 8-22 3-14v-18l-5-24-7-16-8-12-12-14-12-13-89-89-11-9-5-4 2-4 16-15 10-10 4 1 55 55 8 7 27 27 8 7 11 11 8 7 13 11 12 8 19 9 19 5h7l9-2 15-2 17-5 17-8 16-10 13-11 16-15 168-168 8-7 50-50 8-7z" fill="#BAC9D2"/>
<path transform="translate(1714,992)" d="m0 0h2v54l-12 11-110 110h-2v2l-8 7-107 107-12 16-8 14-7 17-5 18-1 18 2 18 4 14 5 12 7 12 12 14 69 69 7 8 12 11 33 33-2 4-11 11-8 7-7 6-5-1-109-109-8-7-11-9-14-9-11-5-16-5-21-3-20 2-18 4-15 6-13 7-13 10-17 16-189 189-8 7-24 24-5 6h-55l6-7 7-8 125-125 8-7 92-92 8-7 18-18 7-8 8-11 9-16 6-15 5-19 1-4v-17l-5-25-7-16-8-12-12-14-12-13-89-89-11-9-5-4 2-4 16-15 10-10 4 1 55 55 8 7 27 27 8 7 11 11 8 7 13 11 12 8 19 9 19 5h7l9-2 15-2 18-5 21-11 16-12 12-11 119-119h2l2-4h2v-2l8-7 88-88 8-7z" fill="#BAC9D2"/>
<path transform="translate(649)" d="m0 0h54l-3 5-150 150h-2v2l-8 7-105 105-9 14-6 13-6 19-2 18 1 18 5 20 8 17 10 13 9 10 118 118-2 4-13 13-11 9-2 2-5-1-109-109-8-7-15-12-16-9-17-6-15-3-13-1-23 3-14 4-12 5-12 7-10 9-15 14-5 6h-2l-2 4h-2l-2 4h-2l-2 4h-2l-2 4h-2l-2 4h-2l-2 4h-2l-2 4h-2l-2 4h-2l-2 4h-2l-1 3-8 7-150 150-8 7-31 31-8 7-2 1v-55l10-9 51-51 8-7 120-120 8-7 22-22 7-8 11-14 11-19 8-18 5-17 2-9v-18l-5-24-7-16-8-12-12-14-12-13-89-89-11-9-5-4 2-4 13-12 4-2 2-4 7-7 4 1 7 8 8 7 40 40 8 7 27 27 8 7 11 11 8 7 13 11 16 10 15 7 19 5h7l9-2 16-2 21-7 21-11 12-8 10-8 12-11 65-65h2l2-4 8-7 108-108 8-7 8-8 7-8 4-4h2z" fill="#BAC9D2"/>
<path transform="translate(1715,1511)" d="m0 0h1v197h-199l6-7 148-148 8-7 29-29h2v-2z" fill="#FEF9E2"/>
<path transform="translate(0)" d="m0 0h182l-6 7-10 10-7 8-82 82-8 7-51 51-8 7-9 8h-1z" fill="#BAC9D2"/>
<path transform="translate(1715,1511)" d="m0 0h1v54l-13 12-102 102-8 7-20 20-1 2h-55l6-7 148-148 8-7 29-29h2v-2z" fill="#BAC9D2"/>
<path transform="translate(0)" d="m0 0h128l-6 7-78 78-8 7-9 9-7 8-8 7-10 10h-2z" fill="#FEF9E2"/>
<path transform="translate(1174,1655)" d="m0 0 4 1 37 37 7 8 6 7h-56l-9-10-11-9-6-5 2-4 16-15z" fill="#BAC9D2"/>
<path transform="translate(658,1655)" d="m0 0 4 1 36 36 7 8 7 7v1h-56l-7-8-10-9-9-7 2-4 17-16z" fill="#BAC9D2"/>
<path transform="translate(138,1655)" d="m0 0 4 1 36 36 7 8 7 7v1h-56l-7-8-10-9-9-7 2-4 14-13 5-5z" fill="#BAC9D2"/>
<path transform="translate(1690,1143)" d="m0 0 4 1 20 20 2 1v56l-7-6-11-11-8-7-12-12-11-9-5-4 2-4 12-11 5-5z" fill="#BAC9D2"/>
<path transform="translate(1690,631)" d="m0 0 4 1 20 20 2 1v56l-7-6-11-11-8-7-12-12-11-9-5-4 2-4 12-11 5-5z" fill="#BAC9D2"/>
<path transform="translate(1690,119)" d="m0 0 4 1 20 20 2 1v56l-7-6-12-12-8-7-11-11-11-9-5-4 2-4 12-11 5-4 7-8z" fill="#BAC9D2"/>
<path transform="translate(1e3)" d="m0 0h59l9 10 6 7-1 4-11 11-8 7-8 6-4-1-38-38z" fill="#BAC9D2"/>
<path transform="translate(484)" d="m0 0h59l9 10 6 7-1 4-11 11-11 9-5 4h-3v-2l-4-2-34-34z" fill="#BAC9D2"/>
<path transform="translate(1516)" d="m0 0h59l9 10 6 7-1 4-11 11-11 9-5 4h-3l-29-29v-2l-4-2-10-11z" fill="#BAC9D2"/>
<path transform="translate(0,489)" d="m0 0 4 2 14 14 8 7v2l4 2 8 8v2h2l2 3-1 4-15 15-11 9-5-1-10-8z" fill="#BAC9D2"/>
<path transform="translate(0,1517)" d="m0 0 5 3 14 14 6 5 4 5 8 7 5 6-1 4-15 15-11 9-5-1-10-8z" fill="#BAC9D2"/>
<path transform="translate(0 1e3)" d="m0 0 5 3 14 14 6 5 4 5 8 7 1 3h2l2 3-1 4-14 14-11 9-5 1-8-7-3-2z" fill="#BAC9D2"/>
<path transform="translate(0)" d="m0 0h27l9 10 5 6 1 4-16 16-13 10-8-6-5-4z" fill="#BAC9D2"/>
<path transform="translate(1715,1679)" d="m0 0h1v29h-29l6-7z" fill="#BAC9D2"/>
</svg>
