<?xml version="1.0" encoding="UTF-8"?>
<svg version="1.1" viewBox="0 0 1716 1712" width="429" height="428" xmlns="http://www.w3.org/2000/svg">
<path transform="translate(0)" d="m0 0h1716v1712h-1716z" fill="#FA5316"/>
<path transform="translate(1378,1285)" d="m0 0 8 1 10 5 5 5 6 12 3 14 6 11 5 13-1 17-4 11v6l6 9 8 24 6 22 1 6v23l-4 14-5 10-4 7 11 2 6 7 2 6v8l-3 10-9 20-6 8-7 5-9 1 1 5 1 1v11l-8 10-6 5-8 4-2 3-1 14-4 19-6 12-7 7-9 4-5 1h-10l-13-5-9-6-8-7-6-9-7 6-8 7-10 7-13 8-25 13-24 14-14 6-9 2h-13l-13-4-11-7-8-9-3-7v-11l6-12 8-7 10-9 14-11 14-12 13-10 18-13 18-14 15-10 17-7h7l9 1-7-4-14-14-11-16-8-14v-2l-4 3-8 16 1 20-1 10-8 4-19 5-6 1h-54l-14-3-7-4-7-8-2-4v-16l-5-1-11 3-8 7-8 12-9 11-8 7-10 5h-10l-5-1 1 4v11l-3 5-5 5-6 4-7-1-6-6-2-6 1-9 5-9 5-4 3-2v-2l-10-8-6-8-2-3-5 2-14 8-13 9-10 9-9 6-8 3-7-1-11-7-5-10-2-9v-18l4-19 8-16 7-9 17-9 20-6 6-1h16l10 3 10 7 6 7 3 5 8-1 25-6 13-5 15-7 10-3h13l17 5 5 3h5l13-18 12-18 7-10v-5l-4-2-6-9-4-10-1-11 3-9 5-5 8-4 6-2h10l12 3 11 6 11 10 5-2 10-7 13-10 7-7 16-9 6-2h14l9 3 9-12 8-16 10-22 10-16 8-7z" fill="#6470F4"/>
<path transform="translate(0)" d="m0 0h1716v3h-101l6 12-1 8-8 16-8 12-7 19-6 12-8 8-12 6-3 1h-12l-15-4-10-7-13-13-8-10-11-12-6-5-15-3-10-6-5-5-1-9 3-6 13-7 1-5-4-1h-100l-15 2-12 3h-15l-3-3v-2h-430l-20 1-7 8-8 6-6 5-4 1h-12l-4-2-4-5-4-12-1-1-7-1h-27l-4 1v6l1 2v8l-5 17-11 23-13 22-5 6-8 7-7 10-8 7-13 4-12-3-8-6-8-8-13-18-9-14-13-19-14-15-26-26-3-4h-72l3 6 17 11 12 8 14 12 10 12 6 10 4 12 6-3 10 2 16 8 11 9 4 2 1-9 3-2 7 1 11 8 7 8 6 9 1 4v7l-5 9-3 3-6 3-1 9-6 7-6 4-3 1h-8l-16-5-13-7-7-6-1 13-6 14-11 16-6 7-11 7-12 5-7 2h-22l-16-4-9-5-9-7-6-9-6-16-5-23v-20l1-4v-7l-6 5h-7l-4-5-2-3h-2l-2 10-5 1-5-5-3-8-1-16-4-16-6-14-1-5v-11l4-8 10-5h7l9 9 3 6v8l-4 13-3 9v10l1 2 7 1-4-7v-10l5-9 7-6 8-2 8 4 6 7 1 5v10l-7 10-5 5-4 1v11h2l1-4 3-6 9-8 6-3 10 1 26 5 13 2-7-11-7-18-7-26-6-27-2-4h-165l5 14 1 5v12l-4 9-6 8-6 4-4 1-6-4-3-4-1-9-11-2-6-4-4-5-1-3v-9l4-8 3-4 1-3-6 1h-28l-1 11-5 17-7 14-10 14-9 11-6 7-8 7-8 6-6 2h-11l-7-4-5-4-7-14-5-21-4-30-1-16-50 1-5 5-8 7-6 3-9-3-8-6-3-6-108-1h-2z" fill="#6470F4"/>
<path transform="translate(1303,920)" d="m0 0h7l8 4 6 7 3 5 5-1h16l20 6 21 10 12 8 11 11 6 14 1 5 6-2 2-1 9 1 9 6 3 7v11l-2 23v11l6 2 21 14 10 7 17 10 6 6h2l6-14 7-7 7-3 7 1 6 5 6 10v19l-5 24-5 22-6 12-6 4-6 1-9-5-7-8-3-7 1-11 1-5-5 2-2 4-3 4v5l5 7-1 8-6 15-9 14-9 12-6 10-11 14-10 9-14 9-11 4h-10l-6-3-5-5-2-4v-11l5-20 1-7-6 1h-10l-11-4-7-6-4-10-2-8v-8l5-27 2-17v-9l-10-3-4-5-1-2v-9l4-6 6-3 9 1 7-14 8-11 9-8h-47l-5 3-12 17-6 5-10 3-39-1-7-1 5 16 1 6v10l-5 17-8 16-8 14-3 5v37l-5 13-6 8-7 7-2 6-2 10-4 9-7 11-8 7-5 2-9-1-8-6-4-5-4-7-3-7-9-5-3-5v-8l3-5 8-3 7-18-1-7-13-24-7-12-1-4 1-16 6-16 7-11 9-11 11-13 11-12 8-7 11-8 9-3-1-2-11-2-6-5-4-8-5-19v-15l1-3h6l6 4 9 10 7 13 3-5 9-27 7-15 10-17 6-15 6-8 9-8 10-4z" fill="#6470F4"/>
<path transform="translate(817,1192)" d="m0 0h14l36 8 22 5 12 4 16 11 16 8 17 9 14 10 8 10 5 10 3 9 11 6 2 2v7l-4 8-8 8-2 7-3 38-3 82-2 17-4 17-6 12-7 7-8 4-3 1h-7l-12-3-17-9-9-7-19-19-10-8-13-11-16-13-6-3-6 3h-9l-14-4-10-6-4-5-3-5-2-1-1 9-3 5-10 6h-11l-7-3-6-3-6 2-8 4-8 3-7 8-5 5-7-1-15-5-5-5-3-4-3-11v-8l5-12 6-10 8-10 7-7 13-8 7-3h10l14 7 8 7 5-1 4-2h8l9 6 2 4v14h2l2-4 6-5 6-2-2-13 1-14 4-25 1-10v-9l-11-30-10-26-4-15v-10l4-11 8-10 11-7z" fill="#6470F4"/>
<path transform="translate(1641,1389)" d="m0 0h7l4 4 4 11v9l-7 15-6 12 5-3 15-16 12-12 14-10 16-8 7-2h4v213l-4-1-11-7-5 2-10 3-8-2-9-7-4-5-1-3v-10l3-18v-7l-3-7-3 16-6 12-14 14-8 7-28 24-14 11-18 13-14 8-13 6-13 8-1 1-2 15-7 11-6 5-5 2h-7l-9-6-5-9v-14l3-10 6-9 6-6 1-5-5-2-9-10-6-12-4-17v-35l1-45 1-24 3-16 5-9 8-9 11-4 8-2 9 1 23 7 5 2h3l7-14 8-8 15-8 13-5 10-5 11-8 8-9 8-12z" fill="#6470F4"/>
<path transform="translate(209,980)" d="m0 0h10l16 4 10 4 8 6 8 9 2 4v10l-5 13-7 11-13 16-13 14-11 8-14 7-11 1 7 8 5 5v2l4 2 7 10 3 7v11l-3 9-6 11v5l4 2 3 3 4 9v9l-6 12-6 7 6-1h14l9 5 5 6 1 3v7l-3 8-7 11-10 10-13 9-16 8-12 3-10-1-3-2h-4l-4 9-6 10-9 10-1 2 11-2h14l9 4 3 4v8l-6 9-7 6-10 6-13 4h-7l-7-3-4-4-2-8-10 10-13 3 8 16 10 21v8l-8 13-10 13-9 7-16 9-7 3-19 1-20 3-21 2h-8v-108l38-4 24-4 9-1v-23l3-17 7-12 11-11 17-12 13-11 9-5 5-1h14l8-7 12-6 12-4h2v-2l-20-3-12-9-8-10-14-25-11-17-10-17-10-19-5-12-1-10 4-1 14 7 4 3 6-1 6-3 16-2 9 1 8-3 9-1-9-11-2-5v-10l2-16 4-19 5-13 6-9 5-5 6-5 11-4z" fill="#6470F4"/>
<path transform="translate(993,892)" d="m0 0h11l13 5 13 10 10 10 9 13 7 14 4 12 2 11v24l-3 15-6 11 11 2 25 11 8 5 8 7 7 10 4 10 2 11v9l-5 19-6 10-4 5-10 6-8 1-13-3-11-6-9-9-9 1-6 4-9 12-7 5-6 2h-9l-17-4-9-4 4 16 2 14v8l-4 10-5 6-10 3-9-1-9-4-9-7-7-7-13-22-8-14-9-15-8-15-5-12-2-8-11 5-9 2-9-1-8-6-4-6v-7l7-14 10-9 13-8 16-8 23-10 18-2 10-5 6-8 3-8 1-4v-21l-1-4v-16l4-16 8-14 6-8 10-8 8-4z" fill="#6470F4"/>
<path transform="translate(1411,266)" d="m0 0 6 1 6 7 1 2v9l-4 11-3 3-11 2v2l12 3 12 5 4 4v14l13 2 10 6 10 9 5 8 2 6-1 8-5 10-6 5-9 3-7 2h-13l-15-3-10-3-5 1-9 10-4 4-4 19-8 16-6 10-9 17-5 9-6 7 12 3 16 5 17 5 16 6 12 7 10 9 6 10 1 3v10l-4 6-7 5-14 3-19 1 6 12v15l-3 8-5 6-8 5-16 5-27 5-36 9-7 1h-18l-10-3-10-5-6-5-8-16-3-13v-18l4-18 4-13 8-14 7-9 11-11 9-4 7-2h11l6 2h6l2-8 9-3v-4l-4-2-4-7-2-9v-8l3-20-6 1h-8l-8-7-3-5v-8l3-5 12-6 6 1 6 7 2-1 4-12 7-11 1-7-10-8-9-6-6-5-3-5h-3l-6 8-13 8-2 1h-7l-9-6-6-8-1-3v-8l4-11 9-10 9-5 19-3 8 2 6 3 4 8 17-4 27-7 7-3 4-8 5-4 10 1-3-8 1-7 8-11 8-5z" fill="#6470F4"/>
<path transform="translate(3,840)" d="m0 0h11l13 4 16 9 10 7 10 6 22 9 11 7 5 5 5 6 6 13 5 18 1 2 1 26-2 6-6 8-5 3h-14l-3 13-6 11-10 10-9 3 2 9 8 27 5 17 1 13-3 23v20l6 36 4 15-1 10-6 8-7 5-1 2-2 28-4 16-6 15-6 10-5 6-8 5-6 2h-7l-16-8-11-7-1-1v-416z" fill="#6470F4"/>
<path transform="translate(306,299)" d="m0 0h6l8 4 7 7 5 13 2 13 1 15 9-5 7 1 5 3 5 6 1 7-2 5 14-7h11l12 3 11 6 9 10 6 7 6 4 8 6 6 9 3 10v23l-3 15-5 16-8 16-9 11-8 8-13 9-12 5-6 2-13 2h-20l-19-3-16-7-10-10-1-4-5 2-6 5-11 2-6-3-6-6-10-28-5-18v-12l5-5 2-1h9l5 2v-2l-11-3-13-5-10-9-2-3-5 1-4 8-10 8h-6l-9-7-8-9-8-13-4-9 1-9 5-8 8-4-2-6-6-10-4-12 1-10 5-6 7-3h8l9 5 8 7 9 14 13 26 4 16 5-1h8l11 2 11 6 10 8 4 1 4-1-1-2-8-2-8-4-7-8-5-10-1-4v-11l5-15 6-16 8-23 6-11 4-3z" fill="#646FF4"/>
<path transform="translate(1287,664)" d="m0 0 10 1 8 6 3 6 9-3 7 1 9 6 8 9 3 11 6-2 5-2 13-2 12 1 25 5 22 6 12 6 10 9 6 10 3 9v16l-5 13-7 10-9 8-13 5-5 1h-15l-21-6-25-9-7-3-5 5-13 8-5 2h-11l5 21 4 17v11l-2 9-6 9-9 6-9 3h-22l-19-4-12-5-7-8-4-8-3-10 1-17 1-19 2-19 2-12-6-2-4-5-2-4v-9l3-6 5-6 12-5 8-3 1-3v-29l4-10 7-8 8-7 7-3z" fill="#6470F5"/>
<path transform="translate(538)" d="m0 0h1178v3h-101l6 12-1 8-8 16-8 12-7 19-6 12-8 8-12 6-3 1h-12l-15-4-10-7-13-13-8-10-11-12-6-5-15-3-10-6-5-5-1-9 3-6 13-7 1-5-4-1h-100l-15 2-12 3h-15l-3-3v-2h-430l-20 1-7 8-8 6-6 5-4 1h-12l-4-2-4-5-4-12-1-1-7-1h-27l-4 1v6l1 2v8l-5 17-11 23-13 22-5 6-8 7-7 10-8 7-13 4-12-3-8-6-8-8-13-18-9-14-13-19-14-15-26-26-3-4h-64l-11-2h-4z" fill="#6470F4"/>
<path transform="translate(58,460)" d="m0 0h12l10 3 8 4 9 7 8 9 13 22 15 25 5 10 1 4v15l-5 13-6 8-13 13-2 5v17l4 8 9 10 8 7 5 4 11-13 10-7 6-3h11l11 4 10 9 4 8 1 3v18l-6 20-8 19-5 9-3 15-4 4-32 8h-9l-8-7-6-10-6-9-6-8-2-5v-9l3-6 7-7 11-6v-3l-13-5-19-10-10-6-29-14-24-11-24-15-10-7v-57h2l2-6 28-56 6-8 7-7 9-5z" fill="#6470F4"/>
<path transform="translate(870,104)" d="m0 0h10l10 4 8 6 6 7 5 5 24 12h11l20-3 22 1 15-9 4-1h11l11 6 11 9 8 10 5 10 3 10 1 13-2 9-5 10-9 6-2 1h-8l-14-6-7-5v-2h-5l-1 8-6 8-8 7-7 1-17-2-15-1-9-2-11-7-23-23-10-8 1 7v10l-2 9-5 5v4h2l8 10 9 17 9 24v12l-4 6-5 2-6-1-10-5-12-9-9-8-5-5-5-4 1 4 6 10 2 10v8l-3 10-6 8-9 7-11 4-11 1-8-3-8-6-5-8-5-19-1-16-1-5v-21l3-5 9-6 12-3 3-10v-6l-8-6-3-8v-10l4-11 7-14 6-10 4-11 4-14 6-9 10-6z" fill="#6470F4"/>
<path transform="translate(604,758)" d="m0 0 6 1 10 6 6 8 6 13 3 12 1 11v13l-1 2v14l2 14 1 14 15 8 10 7 5 4 9 12 4 10 1 4v9l-4 10-6 7-10 5-4 1h-12l-13-5-13-9-8-7-7-3h-10l-3 12-6 5-13 6-15 3-19 2-28 4h-10l-16-3-14-8-7-8-2-5v-6l6-9 9-7 5-4 6-10-1-5-5-6-2-4-1-13-7-1-5-6-1-3v-9l4-9 7-6 3-1h7l6 4 4 6 5-2 16-10 14-11 10-8 10-7 16-9 8-4 6-14 6-8 5-4z" fill="#6470F5"/>
<path transform="translate(445,591)" d="m0 0h8l9 7 4 7v11l-4 14-8 15-3 6 12 2 4 4 3 11 2 2 10 3 7 7 7 11 1 3v13l-4 12-7 11-9 10-14 8-12 5-11 2 7 16 4 19v16l-3 7-4 6-6 3-12 2-15-5-19-8-27-10-11-6-1-6 8-20 9-11 4-4v-3l-8-7-6-10-3-8v-14l4-14 5-9 11-10 8-5 1-3-4-8-1-3v-10l8-16 9-9 11-7 15-12 13-10z" fill="#6470F4"/>
<path transform="translate(1634,900)" d="m0 0 6 1 10 7 10 11 11 16 13 16 10 11v2h2l7 8 13 13v80l-10 7-11 10-11 9-11 10-11 9-10 7-13 5h-12l-14-7-10-9-6-10-4-12-4-26-4-29v-16l7-14 8-10 12-6 15-6 6-7 4-8v-11l-5-15-9-22v-9l8-4z" fill="#6470F4"/>
<path transform="translate(1283,83)" d="m0 0h15l15 4 11 7 5 4 9-8 6-3h8l8 6 9 14 8 15 5 11 2 5v10l-3 5-6 3h-12l-10-3-4-3h-5l-9 8-15 9-14 9-10 11-6 10-9 12-9 9-15 8-11 4-12 1-11-2-10-6-5-5-6-10-14-35-1-9 4-8 8-10 10-21 10-14 10-10 9-6 8-4 15-5 11-2z" fill="#6470F5"/>
<path transform="translate(325,1471)" d="m0 0h7l10 5 7 8 1 2v9l-6 7h-2l2 6 9 16 11 26 7 12 10 15 6 10v2l13 2 12 5 5 4 3 6v11l-4 6-8 7-11 4-25 6-20 7-13 3h-21l-18-6-12-7-8-7-5-8-4-14-2-13v-17l1-7-7-4-1-2v-7l8-14 7-7 2-9 5-21 7-14 5-5 4-3 10-5 8-7z" fill="#6470F4"/>
<path transform="translate(1140,434)" d="m0 0h10l15 4 12 6 8 8 8 13 6 15 5 15 2 12 1 11 6-5 7-1 7 6 5 9v8l-5 4-6 1-8-4-7-10-2 2-4 9-4 5 1 5 7 9 8 14 4 11v9l-3 6-5 4-3 1h-8l-12-6-11-8-10-9-9-10-8-13-3-7h-23l-14-2-10-4-12-11-4-5-4-10-1-5v-14l3-12 10-22 7-9 10-9 14-7 13-3z" fill="#6470F5"/>
<path transform="translate(688,816)" d="m0 0h10l32 13 12 5 8 6 4 5 2 8 3-4 7-8 10-6h10l10 4 10 8 4 3 1-1 1-12 4-7 5-5 5-2h10l12 6 12 12 8 16 2 9v16l-4 11-4 6-5 4-3 1h-9l-7-4h-5l-7 9-11 13-7 7-4 5-8 7-13 9-5 2h-8l-7-6-4-8-4-15-3-29v-12l1-6-8 7-6 4-9 3h-17l-16-5-8-6-14-33-5-11 1-7 6-7z" fill="#6470F5"/>
<path transform="translate(513,1514)" d="m0 0 15 1 27 4 18 4 8 4 5 4h7l8 3 6 4 5 4 5 9 1 4v10l-8 16-8 12-13 17-13 19-8 14-18 38-7 7-7 4h-7l-10-5-8-9-5-13-2-10v-14l3-50 3-19 3-15h-9l-8-3-8-6-5-6v-10l3-6 14-9z" fill="#6470F4"/>
<path transform="translate(1034,1155)" d="m0 0h16l18 6 12 6 9 7 9 11 4 8 2 10v13l-6 27v9l6 8 2 5v14l-5 15-5 6h-7l-12-6-10-8-10-1-11-6-24-15-18-11-9-7-8-7-6-10-4-12v-14l5-11 7-11 10-9 16-10 10-5z" fill="#6470F4"/>
<path transform="translate(1581,1256)" d="m0 0h7l9 5 6 9 2 5v18l-4 15-4 10-1 13-3 6-7 4h-12l-7-2h-6v11l-6 5h-2l1 4 6 7 1 5v17l-4 16-6 12-6 4h-8l-6-5-7-9-9-16-2-5v-16l5-10 5-4 11-4 8-1 1-5-14 3-3 1-18 1-17-4-11-6-7-9-5-10v-12l5-13 7-11 2-4 2-11 4-5 6-4 10-1 8 3 11 5 9-1 8 1 25-8z" fill="#6470F4"/>
<path transform="translate(901,567)" d="m0 0h10l15 5 9 6h11l12 8 4 5 2 6v14l-4 15-11 31-8 12-12 12-13 8-16 5-11-1-16-6-16-9-19-13-6-8-3-6-4-6-4-11v-6l6-10 10-9 14-10 13-11 13-10 12-7z" fill="#6470F5"/>
<path transform="translate(1629,194)" d="m0 0h10l14 6 8 8 6 12 8 28 5 15 3 13-1 7-8 7-8 5-7 8-12 6-7-1-3-2-7 1-4 2-7-1-4-6-5 1-6 5-10 2h-7l-14-7-10-9-8-9-7-8-5-4-5 3-6 5-9 4h-12l-12-6-6-8-1-3v-10l3-10 8-11 9-6 6-2h9l17 7 19 5 21 10 8 6 3 1 5-10 2-1h11l-2-5-4-8-3-11 1-9 6-10 8-7z" fill="#6470F4"/>
<path transform="translate(1010,736)" d="m0 0h9l13 4 9 6 5 5 4 6 2 7v8l-4 9-9 9-9 7-8 7-11 18-10 13-8 7-9 15-9 9-4 2h-17l-5 6-2 1h-6l-8-5-5-6-3-8-1-5-8 4h-12l-10-4-8-6-7-10v-9l3-6 8-7 2-1h9l16 6 9 7 3 5v2l7-6 3-9 2-16v-12l5-9 6-7 17-10 14-7 13-11 11-8z" fill="#6470F5"/>
<path transform="translate(1580)" d="m0 0h136v3h-101l6 12-1 8-8 16-8 12-7 19-6 12-8 8-12 6-3 1h-12l-15-4-10-7-13-13-8-10-11-12-6-5-15-3-10-6-5-5-1-9 3-6 13-7 1-5-1-2h5v-2l5 1h92z" fill="#6470F5"/>
<path transform="translate(420,1188)" d="m0 0h9l16 5 15 7 15 5 4 1h20l7-1h10l1 1v8l-3 8-7 8-13 5-1 3 4 2 13 18 8 11 7 11 3 9-2 10-2 4v3l11 1 8 7 6 8-1 8-5 10-15 14-7 10-5 3-5-2-3-5-4-21v-8l1-9-15-1-14-7-10-9-6-7-5-9v-7l5-24 3-15-21-2-11-3-13-4-10-5-7-6-3-6-1-7 3-8 5-6 10-6z" fill="#6470F5"/>
<path transform="translate(1552,495)" d="m0 0h29l11 4 10 7 14 11 6 3 8-1 11-3 7 1 4 4v5l-7 6-10 7-4 7-5 15-8 10-5 8-8 7-8 2-9-3-4-5-1-2-1-11-2-3h-9l-2 5-5 8-9 10-8 7-2 1h-9l-5-4-4-9v-15l4-10h-11l-10-4-7-5-6-9-2-6v-8l4-9 7-8 10-6 8-3z" fill="#6470F5"/>
<path transform="translate(402,993)" d="m0 0h9l6 4 8 9 7 14 3 12v12l-3 30-2 21-4 11-8 7-8 4-10 2-7-2-3-3-5 1-4 8-9 10-12 12-8 4-9-2-6-4-4-6-3-12v-7l4-13 5-6 3-2 14-1 5-3 9-2-2-4-5-9-1-5v-13l5-16 7-19 6-18 7-8 9-4z" fill="#6470F5"/>
<path transform="translate(171,90)" d="m0 0h8l14 7 7 6 8 13 5 16 2 16-2 16-4 12-7 8-10 6-11 5-33 11v2l5 4 2 5-1 9-6 8-6 4-10 3-5-1-6-3-4-4-1-8 6-11 6-5 6-2v-2l-11-1-5-5-5-9v-14l7-19 11-16 9-8 8-5 1-2 2-16 4-9 6-7z" fill="#6470F4"/>
<path transform="translate(324,918)" d="m0 0h6l11 8 5 7v11l-1 3 16-6 23-6h11l12 6 7 8 3 6v10l-5 13-7 8-18 12-13 8-20 9-10 3h-7l-26-8h-7l-8 3-10 8-4 2-7-1-2-2v-6l9-14 1-5v-9l-2-6v-7l6-9 6-5 15-5 7-1-3-11v-12l3-6 6-5z" fill="#6470F5"/>
<path transform="translate(1633,764)" d="m0 0 8 2 11 8 6 7 7 12 6 11 7 8 15 8 16 7 7 3v38l-13 12-12 7-9 3-10 1-11-4-11-7-10-9-24-24-7-12-3-9v-19l3-17 5-12 6-8 9-5z" fill="#6470F5"/>
<path transform="translate(692,1460)" d="m0 0h9l14 5 9 7 6 8 1 4v10l-4 10-8 10 11-3 10-1 12 6 5 6 3 12v13l-5 19-6 9-10 6-9 1-7-3-8-6-4-5-8-15-3-9v-11l4-8-12 5-7 2-14 1-18-4-10-5-9-8-3-5v-10l5-10 11-11 15-9 15-7z" fill="#6470F5"/>
<path transform="translate(291,1312)" d="m0 0h8l6 4 4 4-1 8-8 20-13 34-3 8 9-5h6l12 6 6 5 5 9v6l-5 6-8 5-6 2h-12l-7-4-5-7-3-9-6 8-8 5-3 1h-7l-12-6-10-10-6-10-5-13-1-4v-30l5-12 5-5 14-7 14-4 25-4z" fill="#6470F5"/>
<path transform="translate(315,189)" d="m0 0 8 1 8 7 3 4 3 16 2 15 5 5 1 3 4 2 9 9 3 5v12l-3 5-8 4-9 2-42 3h-36l-12-2-9-4-7-8v-8l5-11 6-9 15-16 7-8 13-13 10-7 11-5z" fill="#6470F5"/>
<path transform="translate(1279,1172)" d="m0 0h7l21 7 36 13 20 9 10 6 9 7 5 8v7l-4 6-8 8-18 10-28 12-16 5-6 1h-12l-8-3-8-6-4-5-3-7v-10l2-8 4-11-1-6-8-16-2-7 1-9 4-6z" fill="#6470F5"/>
<path transform="translate(0)" d="m0 0h354l-1 2-6 1h-48l-1 11-5 17-7 14-10 14-9 11-6 7-8 7-8 6-6 2h-11l-7-4-5-4-7-14-5-21-4-30-1-16-50 1-5 5-8 7-6 3-9-3-8-6-3-6-108-1h-2z" fill="#6470F4"/>
<path transform="translate(760,462)" d="m0 0h7l35 12 10 6 6 8 1 4v7l-3 9-6 10-16 20-8 16-6 10-9 6-12 3h-9l-11-4-9-7-5-7-1-3v-8l4-12 9-19 3-13 4-20 3-8 5-5z" fill="#6470F5"/>
<path transform="translate(659,276)" d="m0 0h24l9 2 5 3 2 4-1 9-5 9-5 6-13 10-18 10-25 10-13 3h-16l-24 3h-7l-8-3-6-7-2-5v-9l2-5 7-6 17-8 25-10 24-10 19-5z" fill="#6470F5"/>
<path transform="translate(1069,858)" d="m0 0h12l12 5 11 7 9 9 10 15 8 16 4 11v12l-3 5-7 6-2 1h-15l-23-3-12-4-10-6-6-5-7-12-5-16-1-5v-11l2-8 5-8 7-6z" fill="#6470F5"/>
<path transform="translate(1502,383)" d="m0 0 10 2 11 7 8 9 6 12 5 21 2 16v8l-3 9-4 6-9 6-4 1h-8l-10-3-10-7-5-4-8-13-5-12-4-14v-13l4-13 6-8 7-6z" fill="#6470F5"/>
<path transform="translate(1448,1591)" d="m0 0h8l12 8 10 9 4 5v9l-9 14-5 22-7 14-8 9-12 6-12 1-9-2-8-6-6-10-1-3v-15l4-12 9-17 5-9 7-9 9-9z" fill="#6470F5"/>
<path transform="translate(21,129)" d="m0 0h9l17 6 12 6 8 7 6 10 1 3v9l-5 7v2l10 4 7 8-1 9-5 5-11 8-21 13-12 5h-15l-10-4-4-4-1-4 3-8 5-6 14-10 9-7-1-4-6-4-6-8-8-17-3-8v-7l5-9z" fill="#6470F5"/>
<path transform="translate(1019,52)" d="m0 0 9 1 16 11 20 11 6 5 1 7-4 10-3 5-11 7-28 8-9 3-5 1h-12l-8-4-8-7-6-12v-14l6-11 7-8 13-8 11-4z" fill="#6470F5"/>
<path transform="translate(163,794)" d="m0 0h15l14 4 11 7 8 9 4 9 2 9v10l-5 13-7 7-7 3h-8l-18-6-16-7-19-11-7-9-2-5 1-9 6-8 13-10 11-5z" fill="#6470F5"/>
<path transform="translate(1491,641)" d="m0 0h10l12 9 7 8 6 11v5l-2 2-6 1h-13l-8-2-2 11-6 9-7 6-9 5-16 3-9-1-7-3-8-7-4-8-1-3v-8l5-14 7-9 6-5 9-4 5-1h8l5 2 5-1 6-4z" fill="#6470F5"/>
<path transform="translate(1105,306)" d="m0 0h7l13 5 11 7 9 10 8 14 2 7v16l-7 14-9 6-6 2-9-1-13-8-7-6-10-14-7-15-2-7v-11l3-8 6-7z" fill="#6470F5"/>
<path transform="translate(532,352)" d="m0 0h7l16 8 8 6 5 4 9 11 6 10 3 7v15l-6 9-6 4-7 2h-10l-12-3-8-4-11-9-8-11-5-11-2-7v-7l3-10 6-8z" fill="#6470F5"/>
<path transform="translate(425,153)" d="m0 0h8l18 8 10 6 12 9 10 9 5 1 4-2h6l7 5 4 6-2 10-4 6-4 3-10 2-8 6-7 3h-6l-16-8-13-9-18-14-8-20-1-9 3-7z" fill="#6470F5"/>
<path transform="translate(622,1045)" d="m0 0h7l16 8 2 3-1 9-3 4 1 5 9 5v2h2l8 13 1 3v7l-3 5-7 3-10-1-8-4-3-1-11 8-16 7-10 4-8-1-9-5-5-5 1-7 5-7 6-3 7-2 5-6 2-4 8-4-1-4-5-6v-10l5-8 4-4z" fill="#6470F5"/>
<path transform="translate(1714,497)" d="m0 0h2v92l-18-4-14-6-12-9-5-5-4-5-6-16v-9l7-10 16-12 13-8 18-7z" fill="#6470F4"/>
<path transform="translate(449,1620)" d="m0 0h8l9 3 5 5 1 2v8l-4 21-3 20-4 12-8 7-8 4-5-1-9-5-9-10-7-11-5-11-1-3v-10l4-10 6-8 16-8z" fill="#6470F5"/>
<path transform="translate(591,1314)" d="m0 0 7 1 8 5 7 7 4 11 1 6v16l-5 14-6 11-7 8-10 6-2 1-9-1-7-5-7-11-2-7v-15l6-22 6-12 9-10z" fill="#6470F5"/>
<path transform="translate(624,534)" d="m0 0h8l8 6 7 8 10 17 8 24 1 5v7l-3 10-4 6-7 6-3 1h-9l-6-3-8-9-5-10-5-15-3-15-1-10v-11l3-9 4-5z" fill="#6470F5"/>
<path transform="translate(1610,439)" d="m0 0h18l20 4 15 5 10 6 3 5v9l-3 5-8 6-21 6-6 1h-12l-14-1-13-4-8-5-6-9-1-9 4-8 8-7z" fill="#6470F5"/>
<path transform="translate(86,755)" d="m0 0h6l8 4 6 7 1 8-3 10-6 12-9 11-11 9-14 9-9 3h-11l-6-5-4-8v-10l4-11 8-11 14-14 16-10z" fill="#6470F5"/>
<path transform="translate(251,885)" d="m0 0h8l1 1-1 9-7 11-7 8-8 7-17 16-13 12-13 9-5 2h-11l-5-3-6-8v-13l7-11 5-5 10-8 16-9 22-10 20-7z" fill="#6470F5"/>
<path transform="translate(908,1585)" d="m0 0h25l15 5 5 4 1 3v8l-4 6-9 7-13 6-3 14-7 6-2 1h-7l-10-5-4-5-2-7-2-10-8-8-1-2v-8l3-6 6-5 11-3z" fill="#6470F5"/>
<path transform="translate(352,853)" d="m0 0h9l11 6 7 7 8 16v13l-5 9-7 6-9 3h-12l-9-3-11-8-6-8-3-8v-9l4-9 7-8 8-5z" fill="#6470F5"/>
<path transform="translate(530,1421)" d="m0 0 13 1 13 4 10 7 2 3v8l-3 6-7 8-8 7-9 8-12 8-3 1h-8l-8-5-5-6-3-7v-13l5-15 8-9 10-5z" fill="#6470F5"/>
<path transform="translate(342,1310)" d="m0 0h11l18 5 10 4 8 6 5 8v9l-8 11-5 4-17 7-4 1h-22l-5-5-3-10-1-5v-21l3-8 5-4z" fill="#6470F5"/>
<path transform="translate(870,445)" d="m0 0 30 1 11 1 6 4 3 4 1 5-3 5-20 9-17 9-12 4-6 1h-11l-6-4-6-7-3-8 1-8 5-8 5-4 10-3z" fill="#6470F5"/>
<path transform="translate(1493,1199)" d="m0 0 9 2 9 6 6 7 4 10-1 10-5 8-8 7-8 3-6 1h-10l-10-5-6-5-6-10-1-9 5-10 5-6 10-6z" fill="#6470F5"/>
<path transform="translate(737,1018)" d="m0 0 7 2 10 9 6 12v12l-3 10-9 10-7 4-4 1h-12l-9-5-6-9-3-10 1-11 4-10 7-8 10-5z" fill="#6470F5"/>
<path transform="translate(139,282)" d="m0 0 9 1 12 5 8 9 1 3v11l-4 9-4 6-9 8-7 3h-15l-8-4-7-7-4-8v-11l5-10 9-8z" fill="#6470F5"/>
<path transform="translate(687,154)" d="m0 0h14l9 4 5 4 3 6v7l-6 12-4 5-11 7-10 4-4 1h-9l-12-4-5-5-3-6v-10l5-9 7-6 11-7z" fill="#6470F5"/>
<path transform="translate(618,618)" d="m0 0h5l6 7 4 8 2 15v21l-2 10-4 9-7 8-4 2h-10l-8-5-4-8-1-3v-12l6-23 5-13 6-10z" fill="#6470F5"/>
<path transform="translate(1104,32)" d="m0 0h7l9 6 4 6v11l-4 14-7 15-8 15-10 9-6 1-6-5-4-8v-18l4-20 5-13 6-8z" fill="#6470F5"/>
<path transform="translate(91,218)" d="m0 0h6l8 7 8 8v2l4 2 8 11v7l-4 10-8 7-7 3h-9l-4-1-13-1-8-3-5-6v-10l5-15 10-15 5-4z" fill="#6470F5"/>
<path transform="translate(532,1031)" d="m0 0h7l4 3 1 3v10l-4 11-6 12-9 12-7 8-10 6-3 1h-8l-8-5-4-5-2-5 1-8 6-10 7-8 8-7 11-10 9-6z" fill="#6470F5"/>
<path transform="translate(22,237)" d="m0 0 6 1 7 4 11-1 8 6 6 10 2 7v14l-4 12-7 8h-7l-8-7-5-10-2-5-12-2-9-6-8-12 1-5 6-8 6-4z" fill="#6470F5"/>
<path transform="translate(127,1577)" d="m0 0h8l8 4 7 8 2 8v10l-3 15-6 10-5 4-4 2h-8l-10-5-6-8-4-11v-17l4-11 7-6z" fill="#6470F5"/>
<path transform="translate(886)" d="m0 0h694v2l-2 1h-90l-5-2v2l-16 1h-92l-15 2-12 3h-15l-3-3v-2l-443-1-6-1v-1z" fill="#848BED"/>
<path transform="translate(0,1684)" d="m0 0 63 1 10 3 9 7 6 10 1 7h-89z" fill="#6470F4"/>
<path transform="translate(1631,1248)" d="m0 0 9 2 5 5-1 7-2 5 7-2h7l6 4 8 8 4 9v10l-4 8-3 3-10 2-10-3-10-9-4-5-1-9v-2l-5 1-3 1h-7l-5-6-1-8 4-10 10-9z" fill="#6470F5"/>
<path transform="translate(27,1470)" d="m0 0h9l9 8 3 6 1 4v8l-4 17-5 12-5 8-8 6-6 1-6-5-5-9-1-6v-18l2-14 4-8 7-8z" fill="#6470F5"/>
<path transform="translate(771,1605)" d="m0 0h10l8 4 4 5 1 3v11l-4 8-6 6h-2l-2 5-5 10-8 7-6 1-8-4-7-11-1-2v-10l8-20 6-8 5-3z" fill="#6470F5"/>
<path transform="translate(175,1640)" d="m0 0 10 1 11 8 6 9v10l-5 10-8 6-10 4h-10l-8-3-8-7-4-8v-12l6-9 6-5 8-3z" fill="#6470F5"/>
<path transform="translate(972,1627)" d="m0 0h6l9 6 14 12 5 5v10l-3 5-14 9-4 2h-17l-8-3-5-7-3-8v-9l3-9 6-7 9-5z" fill="#6470F5"/>
<path transform="translate(1229,269)" d="m0 0h16l4 2 4 8 1 9-4 11-4 6-7 6-8 3h-9l-14-5-7-6-3-5-1-8 4-8 11-7 13-5z" fill="#6470F5"/>
<path transform="translate(429,304)" d="m0 0h8l11 4 9 6 6 7 1 9-2 7-8 6-22 6-17-2-6-5-2-5v-8l5-12 7-8z" fill="#6470F5"/>
<path transform="translate(276,1184)" d="m0 0h10l14 7 10 8 1 6-2 4-9 4-6 2-2 4-6 10-9 10-5 1-4-5-3-10v-13l-9-7-1-2v-8l4-6 11-4z" fill="#6470F5"/>
<path transform="translate(1117,1587)" d="m0 0h10l13 2 9 5 5 6 1 8-3 6-8 6-10 4-12 2h-13l-6-4-6-7-2-5 1-7 3-5 7-6 8-4z" fill="#6470F5"/>
<path transform="translate(705,407)" d="m0 0 8 1 8 7 6 10 4 12v15l-3 6-6 5-6 1-9-3-8-7-5-8-5-17 1-10 4-6 5-4z" fill="#6470F5"/>
<path transform="translate(1172,732)" d="m0 0 6 1 8 7 3 4 1 3v16l-6 15-6 8-7 4h-8l-7-4-4-5-2-6v-10l5-16 7-11 7-5z" fill="#6470F5"/>
<path transform="translate(1668,1613)" d="m0 0h7l13 4 8 6 5 7v7l-6 10-9 7-8 3h-8l-10-5-8-9-2-5v-9l4-9 5-4z" fill="#6470F5"/>
<path transform="translate(351,1372)" d="m0 0h9l10 8 7 11 2 5v14l-6 7-8 3-8 1-10-4-8-6-4-8-1-4v-10l5-10 8-6z" fill="#6470F5"/>
<path transform="translate(559,989)" d="m0 0 6 1 11 6 10 9 4 7 2 9v10l-3 5-5 4-3 1h-9l-8-4-7-8-6-12-3-9v-15l3-3z" fill="#6470F5"/>
<path transform="translate(640,360)" d="m0 0h10l10 4 5 4 5 7 1 3v10l-3 6-9 7-3 1h-11l-9-3-9-6-6-9v-9l4-6 7-6z" fill="#6470F5"/>
<path transform="translate(1528,130)" d="m0 0 6 1 6 4 5 5 4 8v10l-4 9-4 6-9 7-8 1-8-4-4-6-3-11v-12l4-9 5-5z" fill="#6470F5"/>
<path transform="translate(1338,255)" d="m0 0 7 1 9 6 5 10-1 10-5 8-6 5-8 4h-15l-7-3-4-5-1-2v-8l6-12 7-8z" fill="#6470F5"/>
<path transform="translate(1014,1669)" d="m0 0 5 2 4 5 1 3v14l-6 19h-33l-5-17 1-6 7-8 9-6 8-4z" fill="#6470F4"/>
<path transform="translate(1260,889)" d="m0 0 6 1 8 7 5 7 4 10v7l-5 9-4 5-3 2h-9l-10-6-6-7-3-6v-13l3-8 5-5z" fill="#6470F5"/>
<path transform="translate(700,201)" d="m0 0h7l8 6 6 9 1 4v10l-4 10-9 9-8 1-10-4-5-8-2-6v-11l3-9 7-8z" fill="#6470F5"/>
<path transform="translate(613,192)" d="m0 0 7 1 9 6 6 8 2 6v12l-4 8-8 7-2 1h-6l-6-4-6-8-4-10-1-9 2-9 4-6z" fill="#6470F5"/>
<path transform="translate(1333,1442)" d="m0 0 5 5 9 16 5 6v2l4 2 8 8 8 7 11 9 10 6h9l-3 6-5 7-4-2-5-4-8-1h-20l-9 1-2-4-3-30-3-15-7-16z" fill="#FA5316"/>
<path transform="translate(235,751)" d="m0 0h16l12 6 4 7v8l-5 6-9 5-4 1h-9l-12-5-10-9-2-5 1-6 8-5z" fill="#6470F5"/>
<path transform="translate(642,1128)" d="m0 0 7 1 9 7 7 10 4 12-1 8-4 8-4 3h-7l-9-6-7-9-5-13v-13l2-4z" fill="#6470F5"/>
<path transform="translate(127,926)" d="m0 0h8l13 5 9 6 5 5 4 8v9l-4 6-5 2h-9l-9-3-6-4-7-10-3-6v-11l3-6z" fill="#6470F5"/>
<path transform="translate(1605,380)" d="m0 0 10 1 8 4 2 3-1 10-4 10-7 7-10 5h-7l-6-3-6-8-1-2v-8l4-8 8-7z" fill="#6470F5"/>
<path transform="translate(1471,1411)" d="m0 0 8 1 8 6 4 7 1 5v12l-5 10-5 4-4 1-10-5-7-7-4-8-1-4v-8l4-8 5-4z" fill="#6470F5"/>
<path transform="translate(1713,664)" d="m0 0h3v49l-8-1-10-3-9-6-4-5-2-4v-10l5-8 12-7z" fill="#6470F4"/>
<path transform="translate(0,960)" d="m0 0 12 4h8l5 4 9 14 6 8-1 2-11 4-27 13h-1z" fill="#FA5316"/>
<path transform="translate(334,371)" d="m0 0 4 1 4 4h7l6-2-2 5-5 10v10l3 8 2 3-1 6-12 10-12 7h-4l1-5 3-11-1-6-10-5 1-3 8-6 7-16z" fill="#FA5316"/>
<path transform="translate(776,114)" d="m0 0 6 1 5 5 5 8 1 6v8l-4 17-6 12-6 1-5-8-4-15-2-12v-9l6-10z" fill="#6470F5"/>
<path transform="translate(552,691)" d="m0 0h9l9 4 6 4 4 6 1 3v7l-3 6-6 5-3 1h-10l-8-4-7-8-4-9 1-8 6-5z" fill="#6470F5"/>
<path transform="translate(794)" d="m0 0h92l1 2h33v1l-40 2-7 8-8 6-6 5-4 1h-12l-4-2-4-5-4-12-1-1-7-1-31-1z" fill="#6470F4"/>
<path transform="translate(1235,445)" d="m0 0 6 2 4 9v9l-5 13-7 11-9 8-4 2-7-1-3-2v-7l5-15 8-16 6-8z" fill="#6470F5"/>
<path transform="translate(223,1526)" d="m0 0h7l8 4 9 9 6 12 3 18v10l-2 2-5-1-10-11-7-8-7-11-5-10v-11z" fill="#6470F5"/>
<path transform="translate(639,1201)" d="m0 0h8l12 5 10 8 5 5 7 9 2 3v6h-7l-26-8-14-7-7-6-1-2v-7l5-4z" fill="#6470F5"/>
<path transform="translate(841,1523)" d="m0 0 7 1 6 4 6 7 2 5v10l-3 5-5 4-6 2-11-1-6-4-6-8-1-7 3-8 8-8z" fill="#6470F5"/>
<path transform="translate(0)" d="m0 0h238l-3 3-35 1h-51l-5 5-8 7-6 3-9-3-8-6-3-6-108-1h-2z" fill="#878DEC"/>
<path transform="translate(1336,876)" d="m0 0h9l7 6 2 5v9l-5 10-5 6-9 3-8-2-6-4-3-5-1-6 3-9 9-10z" fill="#6470F5"/>
<path transform="translate(497,408)" d="m0 0h7l7 7 3 5 1 7-2 10-4 6-7 6-9-1-8-7-4-11v-9l5-8 8-4z" fill="#6470F5"/>
<path transform="translate(1551,323)" d="m0 0 6 1 9 6 5 8 1 8-3 9-8 6-5 1-9-4-8-7-3-8 1-9 4-6 4-3z" fill="#6470F5"/>
<path transform="translate(1591,154)" d="m0 0 7 1 9 6 5 6 2 5v11l-3 5-4 3-3 1h-8l-9-6-6-8-1-3v-11l4-6z" fill="#6470F5"/>
<path transform="translate(714,1146)" d="m0 0h11l10 5 6 7 1 3v7l-3 5-6 4-3 1h-13l-6-4-7-8-1-8 4-8z" fill="#6470F5"/>
<path transform="translate(1601,1178)" d="m0 0 7 2 7 9 2 5v10l-5 10-5 4-7 1-8-4-5-8-1-2v-13l4-8 5-4z" fill="#6470F5"/>
<path transform="translate(45,360)" d="m0 0h7l5 3v2l3 1 6 11v12l-4 6-5 4h-6l-10-6-6-7-2-6v-7l3-8 5-4z" fill="#6470F5"/>
<path transform="translate(764,972)" d="m0 0h10l6 3 5 5 1 2v7l-4 7-9 6-4 1h-9l-7-3-6-7v-8l3-6 8-5z" fill="#6470F5"/>
<path transform="translate(1180,340)" d="m0 0h10l12 6 4 5v11l-3 5-5 3-10 1-8-2-6-3-6-7-1-7 4-7 6-4z" fill="#6470F5"/>
<path transform="translate(1672,133)" d="m0 0h6l8 7 3 7v11l-5 9-6 5-6 1-8-4-5-7v-12l4-9 5-5z" fill="#6470F5"/>
<path transform="translate(397,1347)" d="m0 0h6l9 8 3 7 1 13-3 6-7 6-7-1-8-6-6-10v-10l4-7 6-5z" fill="#6470F5"/>
<path transform="translate(32,1581)" d="m0 0 6 1 8 7 5 9 1 4v13l-4 4-2 1-9-1-8-6-6-12-1-10 2-6 4-3z" fill="#6470F5"/>
<path transform="translate(153,14)" d="m0 0h6l5 4 2 5v11l-4 10-6 8-6 3h-5l-4-5-2-5v-12l6-12 5-5z" fill="#6470F5"/>
<path transform="translate(933,294)" d="m0 0 8 1 8 4 4 5 1 3v7l-6 7-9 4-7-1-7-4-4-5-1-8 4-8 5-4z" fill="#6470F5"/>
<path transform="translate(122,428)" d="m0 0h8l9 4 5 6v9l-8 7-4 2h-11l-8-5-4-6v-8l4-6z" fill="#6470F5"/>
<path transform="translate(1e3 422)" d="m0 0 4 1 1 1-1 9-6 10h-2l-2 4-7 5-3 1h-9l-6-4-1-2v-7l4-7 10-6 8-3z" fill="#6470F5"/>
<path transform="translate(1698,346)" d="m0 0h10l6 7 2 1v19l-9 7-8-1-5-5-5-7-1-3v-7l4-8z" fill="#6470F5"/>
<path transform="translate(1120,1171)" d="m0 0 8 1 6 4 3 4 1 8-4 8-5 5-7 1-8-3-5-6-1-2v-7l4-7 6-5z" fill="#6470F5"/>
<path transform="translate(1187,412)" d="m0 0h9l5 3 4 7 1 9-3 6-8 5h-8l-8-6-3-6 1-8 5-8z" fill="#6470F5"/>
<path transform="translate(889,701)" d="m0 0h11l5 3 4 6 1 9-4 7-5 4-8 1-6-3-6-7-1-2v-7l6-9z" fill="#6470F5"/>
<path transform="translate(1701,470)" d="m0 0h11l4 1v23l-14 4h-9l-5-4-2-4 1-6 4-7z" fill="#6470F4"/>
<path transform="translate(1713,884)" d="m0 0h3v54l-4-2-7-7-5-10v-11l3-10 7-11z" fill="#6470F4"/>
<path transform="translate(1370)" d="m0 0h210v2l-2 1h-90l-5-2v2l-16 1-83-1-17-1z" fill="#858CED"/>
<path transform="translate(1622,1462)" d="m0 0 1 2-1 2v10l7 11 9 10 7 6 10 13 5 9 3 7v6l-2-2-7-14-9-12-10-9-15-10-7-4v-2l-4-2-6-5 2-4 10-7z" fill="#FA5316"/>
<path transform="translate(808,641)" d="m0 0 8 1 9 6 2 3-1 9-6 5-9-1-11-6-2-3 1-8 6-5z" fill="#6470F5"/>
<path transform="translate(538)" d="m0 0h164l-2 3h-77l-70 1-11-2h-4z" fill="#8D92EB"/>
<path transform="translate(345,307)" d="m0 0 7 1 5 4 4 6v9l-6 5h-11l-5-5-1-2v-11l3-5z" fill="#6470F5"/>
<path transform="translate(370)" d="m0 0h164v2l-22 1h-116l-25-1z" fill="#868CED"/>
<path transform="translate(447,1047)" d="m0 0 9 1 3 3 1 3v8l-3 5-5 3h-8l-6-6v-7l6-9z" fill="#6470F5"/>
<path transform="translate(116,2)" d="m0 0 33 1-6 7-7 6-6 3-9-3-8-6-3-7z" fill="#6470F4"/>
<path transform="translate(1249,416)" d="m0 0 11 1 5 4 1 2v10l-4 3-7 1-6-3-3-5v-9z" fill="#6470F5"/>
<path transform="translate(306,1676)" d="m0 0 6 1 9 7 6 10 2 4-1 5-4 1-6-3-8-8-5-12z" fill="#6470F5"/>
<path transform="translate(837,746)" d="m0 0h12l5 4 1 8-5 5-4 2-6-1-6-4-1-2v-8z" fill="#6470F5"/>
<path transform="translate(1714,121)" d="m0 0h2v43l-4-2-5-10-2-13 2-9 4-6z" fill="#6470F4"/>
<path transform="translate(1163,68)" d="m0 0 6 1 5 5 1 4v11l-4 3h-6l-5-4-1-2v-11l2-6z" fill="#6470F5"/>
<path transform="translate(1611)" d="m0 0h105v3h-102l-1 2-2-2z" fill="#848BED"/>
<path transform="translate(1436,1309)" d="m0 0 7 1 3 3v8l-4 3-3 1h-10l-5-3 1-7 5-4z" fill="#6470F5"/>
<path transform="translate(897,1505)" d="m0 0 11 2 6 4 1 7-3 4h-10l-6-3-2-3v-8z" fill="#6470F5"/>
<path transform="translate(1339)" d="m0 0h31v1l14 1v1l-24 3-12 3h-15l-3-3v-2l-3-1 12-1z" fill="#6470F4"/>
<path transform="translate(1487)" d="m0 0h93v2l-2 1h-90z" fill="#8F94EB"/>
<path transform="translate(256,1103)" d="m0 0 7 1 3 4v12l-2 2h-8l-4-4-1-2 1-10z" fill="#6470F5"/>
<path transform="translate(319,785)" d="m0 0 12 1 5 3 1 1v5l-4 3-4 1h-9l-4-4v-8z" fill="#6470F5"/>
<path transform="translate(428,1404)" d="m0 0 9 2 3 5v7l-3 3h-9l-5-5 1-9z" fill="#6470F5"/>
<path transform="translate(272)" d="m0 0h82l-1 2-6 1h-20l-30 1-24-1z" fill="#898FEC"/>
<path transform="translate(1078,537)" d="m0 0 6 2 3 2v2h2v2l4 2 5 7-1 5h-6l-8-7-6-10z" fill="#6470F5"/>
<path transform="translate(754,2)" d="m0 0 3 1-1 5-6 9-4-1-10-7-4-4 1-2z" fill="#FA5316"/>
<path transform="translate(1131,1643)" d="m0 0h10l4 3v6l-3 3-2 1h-8l-5-4-1-5 2-3z" fill="#6470F5"/>
<path transform="translate(1201,676)" d="m0 0h9l4 4v9l-3 3h-7l-4-5v-10z" fill="#6470F5"/>
<path transform="translate(37,913)" d="m0 0 11 1 10 4 8 7 1 3-5-1-15-5-8-2-3-2z" fill="#FA5316"/>
<path transform="translate(867,1154)" d="m0 0 6 1 3 4v8l-2 3-6 1-4-4-1-2v-8z" fill="#6470F5"/>
<path transform="translate(1160,146)" d="m0 0 7 1 3 4v6l-5 5h-5l-3-3-1-8 2-4z" fill="#6470F5"/>
<path transform="translate(0,109)" d="m0 0 5 2 2 6v13l-5 11h-2z" fill="#6470F4"/>
<path transform="translate(872,24)" d="m0 0h7l2 1v10l-2 2h-6l-4-4-1-5z" fill="#6772F4"/>
<path transform="translate(704,1182)" d="m0 0 7 2 2 3-1 6-4 3h-5l-3-4v-7z" fill="#6470F4"/>
<path transform="translate(1030,315)" d="m0 0 7 1 2 4-1 6-4 3-6-2-1-1v-8z" fill="#6470F4"/>
<path transform="translate(1497,139)" d="m0 0 5 1 1 1v7l-2 2-5 1-5-3-1-6 2-2z" fill="#6470F5"/>
<path transform="translate(564,1299)" d="m0 0h8l2 2v5l-5 4h-6l-2-3 1-5z" fill="#6470F5"/>
<path transform="translate(1135,714)" d="m0 0 4 1v6l-2 4-2 1h-6l-2-1v-5z" fill="#6470F5"/>
<path transform="translate(1259,1666)" d="m0 0 5 1 2 2v7l-7 1-2-2 1-8z" fill="#6974F3"/>
<path transform="translate(460,1522)" d="m0 0 5 1 2 3-1 5-1 1h-6l-2-2v-6z" fill="#6672F4"/>
<path transform="translate(1715,1089)" d="m0 0h1v19l-4-2-2-7 4-9z" fill="#6470F4"/>
<path transform="translate(1622,131)" d="m0 0 4 2v7l-2 2-5-1-1-1v-6z" fill="#6D78F2"/>
<path transform="translate(794)" d="m0 0h30l3 2-35 1z" fill="#8F94EB"/>
<path transform="translate(600,1462)" d="m0 0 5 1 1 4-2 2h-8l-2-2v-3z" fill="#6974F3"/>
<path transform="translate(730)" d="m0 0h30l-1 3-29-1z" fill="#8F94EB"/>
<path transform="translate(855)" d="m0 0h21l-1 2-3 1h-16z" fill="#8F94EB"/>
<path transform="translate(81,1648)" d="m0 0 3 1v6l-5 1v-6z" fill="#717BF1"/>
<path transform="translate(690,1633)" d="m0 0 4 2-1 4-4 1-1-5z" fill="#6A75F3"/>
</svg>
