<?xml version="1.0" encoding="UTF-8"?>
<svg version="1.1" viewBox="0 0 1716 1708" width="429" height="427" xmlns="http://www.w3.org/2000/svg">
<path transform="translate(0)" d="m0 0h1716v1708h-1716z" fill="#6977FC"/>
<path transform="translate(1391,1024)" d="m0 0 1 3-1 71v151l-3 14-8 18-10 17-10 14-9 10-14 14-8 6-15 10-13 6-12 4-18 4-205 1-35 1-2 1-8 27-7 20-12 31-11 28-10 24-8 16-7 12-7 11-10 14-9 10-8 8-11 8-16 8-12 5-13 4-16 2h-11l-20-3-21-7-16-8-11-7-13-12-9-11-12-18-9-15-11-23-12-30-19-49-12-37-2-8-3-1-42-1-190-1-25-5-15-5-14-7-17-12-13-12-7-7-10-13-7-11-12-23-6-19v-227h165l17 5 16 8 15 10 14 14 10 16 8 15 11 24 17 41 9 21 16 40 16 38 10 23 7 15 19 42 10 23 3 6v2l25 1h305l10-1 3-9 9-20 16-36 11-24 9-20 6-15 5-11 16-40 13-31 11-26 9-21 11-24 11-21 7-9 13-13 14-9 8-5 12-5 14-4h132z" fill="#076945"/>
<path transform="translate(831,601)" d="m0 0h51l24 3 20 5 23 8 26 12 17 10 17 12 13 11 12 11 8 8 9 11 10 13 10 15 8 14 8 16 8 20 7 24 3 17 4 36v20l-4 33-5 22-9 27-12 25-11 18-13 18-12 14-21 21-14 11-19 13-14 8-16 8-23 9-31 8-23 4h-40l-28-4-26-6-18-6-19-8-16-8-12-7-15-10-13-11-8-7-6-5-7-8-9-10-10-13-10-15-10-17-10-21-7-20-4-14-4-22-3-24v-31l4-31 5-25 8-23 9-20 9-17 8-12 8-11 11-14 8-8 7-8h2v-2l8-7 14-11 18-12 15-9 23-11 36-12 22-4z" fill="#076945"/>
<path transform="translate(851,110)" d="m0 0h12l18 2 17 6 21 10 13 9 14 14 14 19 9 15 12 23 10 24 16 41 9 24 7 21 5 17v5l-81-1h-255l-4 3-11 23-11 25-7 15-5 12-7 15-11 25-8 19-12 30-11 27-7 17-5 11-11 26-7 17-8 16-8 15-12 16-11 10-14 9-14 7-17 5-165 1-1-1v-227l5-16 10-21 7-11 7-10 9-10 15-15 15-11 13-8 15-6 25-6h194l46-1 4-16 12-36 16-42 15-37 11-22 10-16 10-14 9-11 3-3h2v-2l18-13 16-8 16-6 6-2z" fill="#076945"/>
<path transform="translate(1028,340)" d="m0 0 50 1h192l21 5 16 6 15 8 13 10 10 9 13 13 12 17 9 16 6 12 5 15 1 7v224h-71l-90-1-14-3-14-5-16-9-11-8-10-10-7-10-7-12-13-28-12-28-14-33-15-37-12-30-11-26-7-15-16-35-16-36-7-16z" fill="#076945"/>
<path transform="translate(322,683)" d="m0 0 2 2-1 122v217l-6-1-35-12-20-7-17-7-16-6-30-12-18-8-18-10-11-7-12-9-10-9-11-12-8-13-8-17-6-18-1-10v-21l1-13 5-16 6-13 6-12 8-11 4-5 7-6 5-5 12-9 17-11 27-14 62-25 16-6 36-12z" fill="#076945"/>
<path transform="translate(1393,683)" d="m0 0 11 3 25 8 30 11 48 19 25 11 17 9 14 9 16 12 15 15 12 19 8 17 4 13 2 17v19l-2 14-4 12-7 16-10 16-11 13-10 9-17 12-20 12-23 11-33 13-39 15-22 8-23 7h-6z" fill="#076945"/>
</svg>
