<?xml version="1.0" encoding="UTF-8"?>
<svg version="1.1" viewBox="0 0 1716 1708" width="429" height="427" xmlns="http://www.w3.org/2000/svg">
<path transform="translate(0)" d="m0 0h1716v1708h-1716z" fill="#FEB504"/>
<path transform="translate(0)" d="m0 0h1716v784h-883l-28-2-32-4-24-5-33-9-28-10-24-10-30-13-21-7-12-3h-12l-8 7-6 7-8 15-10 33-8 30-6 14-5 6-7 5-7 2h-524z" fill="#FEB504"/>
<path transform="translate(0)" d="m0 0h1716v360h-759l-16-2-39-9-25-7-36-13-35-14-21-8-24-6h-10l-13 4-8 6-6 7-5 10-11 35-7 24-7 16-7 8-8 3-11 2h-668z" fill="#161717"/>
<path transform="translate(347,1436)" d="m0 0h10l24 6 21 8 30 12 30 11 18 6 34 9 27 6 12 1h1156l7 1v212h-1716v-156l9-1h254l13-2 7-3 6-7 7-16 7-24 11-35 6-12 9-9 10-5z" fill="#161717"/>
<path transform="translate(589,720)" d="m0 0h12l22 6 25 10 16 7 29 12 33 11 36 9 25 4 28 3 18 1 883 1v144h-959l-16-2-39-9-27-8-34-12-35-14-21-8-24-6h-10l-13 4-8 6-6 7-5 10-11 35-7 24-7 16-7 8-8 3-11 2h-468v-144l524-1 8-3 7-5 6-10 6-18 7-27 8-26 8-15 9-10z" fill="#FEB504"/>
<path transform="translate(389,1288)" d="m0 0h12l22 6 25 10 16 7 27 11 25 9 37 10 26 5 36 4 18 1 1083 1v144h-1163l-16-2-39-9-25-7-36-13-35-14-21-8-24-6h-10l-13 4-8 6-6 7-5 10-11 35-7 24-7 16-7 8-10 4-10 1h-263v-144l323-1 9-3 7-5 6-10 6-18 7-27 8-26 8-15 9-10z" fill="#FEB504"/>
<path transform="translate(793,152)" d="m0 0h12l22 6 25 10 16 7 27 11 19 7 31 9 21 5 25 4 28 3 19 1 678 1v144h-759l-16-2-39-9-25-7-36-13-35-14-21-8-24-6h-10l-13 4-8 6-6 7-5 10-11 35-7 24-7 16-7 8-8 3-11 2h-668v-144l727-1 9-3 7-5 6-10 6-18 7-27 8-26 8-15 9-10z" fill="#FEB504"/>
<path transform="translate(551,868)" d="m0 0h10l24 6 21 8 30 12 30 11 25 8 36 9 18 4 12 1h952l7 1v140h-979l-28-2-32-4-24-5-33-9-28-10-24-10-30-13-21-7-12-3h-12l-8 7-6 7-8 15-10 33-8 30-6 14-5 6-7 5-7 2h-428v-140l9-1h459l11-2 8-3 6-7 7-16 7-24 11-35 5-10 9-10 6-4z" fill="#161717"/>
<path transform="translate(751,300)" d="m0 0h10l24 6 21 8 30 12 30 11 18 6 34 9 27 6 12 1h752l7 1v140h-779l-28-2-32-4-24-5-33-9-28-10-24-10-30-13-21-7-12-3h-12l-8 7-6 7-8 15-10 33-8 30-6 14-5 6-7 5-7 2h-628v-140l9-1h659l11-2 8-3 6-7 7-16 7-24 11-35 6-12 9-9 10-5z" fill="#161717"/>
<path transform="translate(647,584)" d="m0 0h10l24 6 21 8 35 14 36 13 37 10 31 7 12 1h856l7 1v140h-883l-28-2-32-4-24-5-33-9-28-10-24-10-30-13-21-7-12-3h-12l-8 7-6 7-8 15-10 33-8 30-6 14-5 6-7 5-7 2h-524v-140l9-1h555l12-2 7-3 6-7 7-16 7-24 11-35 5-10 9-10 8-5z" fill="#161717"/>
<path transform="translate(447,1152)" d="m0 0h10l24 6 21 8 35 14 36 13 37 10 31 7 12 1h1056l7 1v140h-1083l-28-2-32-4-24-5-33-9-28-10-24-10-30-13-21-7-12-3h-12l-8 7-6 7-8 15-10 33-8 30-6 14-5 6-7 5-8 2h-323v-140l9-1h355l9-1 10-4 6-7 7-16 7-24 11-35 5-10 9-10 8-5z" fill="#161717"/>
<path transform="translate(0)" d="m0 0h1716v76h-653l-18-1-26-6-28-7-19-6-34-12-42-17-21-7-13-3h-12l-14 5-10 9-5 9-6 16-10 33-5 16-7 16-7 7-9 3-10 1h-767z" fill="#FEB504"/>
<path transform="translate(289,1572)" d="m0 0h12l22 6 25 10 16 7 32 13 33 11 33 8 24 4 28 3 19 1h1047l136 1v72h-1716v-16l223-1 9-3 8-6 7-14 14-50 6-18 9-16 11-11z" fill="#FEB504"/>
</svg>
