<?xml version="1.0" encoding="UTF-8"?>
<svg version="1.1" viewBox="0 0 1716 1708" width="429" height="427" xmlns="http://www.w3.org/2000/svg">
<path transform="translate(0)" d="m0 0h1716v1708h-1716z" fill="#FD530E"/>
<path transform="translate(0)" d="m0 0h1716v1708h-1716zm547 155-54 1-34 3-24 4-32 8-29 10-24 11-17 9-17 10-19 12-18 14-14 12-22 22v2h-2l-20 25-20 30-14 26-10 22-10 28-8 32-4 26-3 31v5l3 1 22 1h323l-1 310-8-24-7-16-13-21-10-13-11-12-11-10-12-8-17-10-18-8-24-8-19-4-8-1h-34l-28 6-27 9-22 11-14 10-11 9-16 16-13 17-13 22-8 20-5 18-3 18-1 8v26l4 27 4 15 8 20 10 19 10 14 11 14 15 15 19 14 16 9 25 10 16 5 16 3 4 1 25 1 18-1 26-6 21-7 19-9 19-12 16-13 12-12 11-14 10-16 10-21 5-15 2-10 1 1v310h-108l-239 1v12l4 33 6 32 9 31 10 24 13 27 13 22 14 20 11 14 9 11 13 13 5 6 8 7 6 6h2v2l13 10 17 12 13 8 17 10 16 8 21 10 25 9 22 6 29 6 38 4 19 1h712l32-2 28-4 27-6 26-8 26-11 17-9 12-6 20-12 12-8 15-11 13-11 8-7 20-20 8-10 11-14 11-15 12-19 14-27 13-30 9-28 7-29 4-28 2-18v-11l-241-1h-111l1-308 9 26 11 21 10 15 8 10 9 10 8 7 3 1v2l17 12 25 13 22 8 10 3 12 2 7 2 21 1 23-1 27-6 18-6 25-12 15-10 10-8 10-9 7-7 8-10 11-16 12-23 7-19 5-21 2-12 1-18-1-20-5-26-6-18-7-16-11-19-11-15-12-14-13-12-21-14-16-8-12-5-18-6-23-5-7-1h-35l-24 5-23 7-20 9-16 9-16 12-16 15-9 11-8 11-9 16-9 21-3 11v3h-3v-306l8 1h344l1-3-7-51-6-28-5-17-5-15-11-26-11-22-10-17-15-22-13-17-12-14-11-12h-2l-2-4-11-9-13-11-19-13-19-12-22-12-25-12-21-8-23-7-27-6-36-5-13-1-30-1z" fill="#FEB606"/>
<path transform="translate(855,896)" d="m0 0 2 2 6 32 7 27 9 26 9 21 12 24 13 21 11 16 10 13 11 13 7 8 21 21 11 9 12 10 11 8 12 8 15 9 23 12 19 8 22 8 30 8 16 3 15 2 9 2 18 1-1 2-26 2-38 8-30 9-24 10-16 8-23 12-16 10-15 10-18 14-15 14-18 18-20 25-20 30-14 27-9 19-9 24-10 36-3 14-2 16-3-3-4-23-6-24-11-33-11-25-13-25-10-16-11-16-13-17-18-21-6-5v-2l-4-2-12-11-17-13-12-8-16-10-23-13-27-13-21-8-23-7-27-6-23-4-22-2-1-2 26-2 23-4 30-7 30-10 26-12 21-11 14-9 14-10 13-10 14-12 10-9 21-21 9-11 11-14 12-17 12-20 8-15 9-20 9-24 5-15 6-22 6-34z" fill="#FEB606"/>
<path transform="translate(857,190)" d="m0 0 2 1 5 30 8 31 9 25 14 30 12 22 10 15 10 14 8 10 11 14 13 13v2l4 2 14 14 14 11 15 11 16 10 21 12 28 14 20 8 31 9 27 6 12 2 32 3v1l-28 2-30 5-31 8-31 11-25 12-22 12-15 10-16 12-10 8-10 9-8 7-10 9-8 8-7 8-9 11-14 18-14 22-12 22-10 22-10 26-8 28-6 27-2 11-3-1-6-31-7-26-7-20-5-13-10-23-12-22-18-27-9-12-8-10-12-13-7-8-9-9-8-7-10-9-10-8-17-12-20-12-18-10-23-10-25-9-25-7-29-6-24-3-4-2 32-3 36-8 26-8 16-6 33-16 19-11 19-12 16-12 13-11 8-7 18-18 9-11 14-18 9-13 12-19 14-27 11-25 11-33 7-30 2-17z" fill="#FEB606"/>
</svg>
