<?xml version="1.0" encoding="UTF-8"?>
<svg version="1.1" viewBox="0 0 1716 1708" width="429" height="427" xmlns="http://www.w3.org/2000/svg">
<path transform="translate(0)" d="m0 0h1716v1708h-1716z" fill="#FEB606"/>
<path transform="translate(774,116)" d="m0 0 165 1 1 53v305l6-3 251-251 4 1 25 25 8 7 4 4v2h2l7 8 19 19 2 1v2l4 2 32 32 6 7 7 6-1 4-108 108h-2l-2 4h-2l-2 4-130 130-5 4-3 5 512 1 2 1 1 50v117l-516 1 7 8 8 7 260 260 7 8 9 9 7 8 13 16 14 19 14 22 13 27 10 28 6 20 6 26 3 24 1 11v32l-3 27-4 24-8 28-10 25-12 25-10 18-13 19-10 13-8 10-14 15-16 16-11 9-15 11-16 10-18 10-25 13-20 8-23 7-28 6-29 4-10 1h-389l-160 1-24-2-26-4-19-4-23-6-22-8-29-14-24-13-15-10-11-8-11-9-10-9-5-4-7-8-9-10-11-14-10-13-12-18-10-18-14-29-8-21-7-26-5-31-2-16-1-15v-13l2-25 4-25 7-28 11-32 11-25 10-18 12-18 12-16 10-13 11-12 9-9 7-8 261-261 6-7 5-4 1-2h-512l-1-34v-133l1-1 510-1v-2l-9-9-6-5v-2h-2v-2l-4-2v-2h-2v-2h-2l-7-8-223-223 1-3 10-8 14-14 7-8 62-62h2v-2h2v-2h2l2-4 15-15 5 1 12 13 16 15 4 4v2l4 2 5 6 7 6 5 6 7 6 5 6 7 6 5 6 7 6 5 6 7 6 5 6 7 6 5 6 7 6 5 6 7 6 5 6 7 6 5 6 7 6 5 6 7 6 5 6 7 6 5 6 7 6 6 7 6 5 5 6 32 32 8 7 6 5 1-359z" fill="#FDF9E2"/>
<path transform="translate(770,886)" d="m0 0h2l1 359h166v-358l2-1 8 7 5 6 2 1v2l4 2 260 260 11 14 9 10 9 13 8 15 8 24 3 14 1 12v31l-5 22-6 16-9 17-9 12-9 10-11 11-14 11-11 7-16 8-15 6-14 4-6 1h-574l-11-2-16-5-15-6-15-8-11-8-14-12-16-16-7-10-9-15-6-15-5-19-2-12v-38l3-16 6-18 6-14 10-16 12-13 10-13 9-9 7-8 18-18h2v-2h2v-2l8-7 71-71 1-2h2v-2h2v-2h2v-2h2v-2h2v-2h2v-2h2v-2h2v-2h2v-2h2l2-4 4-4h2v-2h2v-2h2l2-4 22-22h2v-2l8-7 15-15 1-2h2v-2h2l2-4 63-63 8-7z" fill="#FEB606"/>
</svg>
